<?xml version="1.0" encoding="UTF-8"?>
<!DOCTYPE svg  PUBLIC '-//W3C//DTD SVG 1.1//EN'  'http://www.w3.org/Graphics/SVG/1.1/DTD/svg11.dtd'>
<svg width="694.74px" height="718.42px" enable-background="new 0 0 694.737 718.421" version="1.1" viewBox="0 0 694.737 718.421" xml:space="preserve" xmlns="http://www.w3.org/2000/svg">
<pattern id="w" x="-174.895" y="-102.421" width="719.381" height="417.481" overflow="visible" patternUnits="userSpaceOnUse" viewBox="237.471 -610.102 719.381 417.481">
		<polygon points="237.47 -610.1 956.85 -610.1 956.85 -192.62 237.47 -192.62" fill="none"/>
			<path d="m846.99-303.61c8.942 7.417 17.275 20.191 18.542 36.863 1.743-16.576 5.18-29.381 13.304-38.824 0 0-10.254 5.016-13.96 14.831-4.79-8.5-17.88-12.87-17.88-12.87z" fill="#2D9746"/>
			<path d="m824.31-386.05c1.976 9.671 10.22 18.109 20.94 22.248-4.392-11.331-2.759-22.356 3.491-32.064-1.456 12.584 2.38 21.405 9.377 29.229-2.202-7.823-2.013-15.016 1.747-22.466-1.528 13.741 9.994 20.72 25.303 29.883 20.513 12.28 27.994 25.992 31.188 44.116-5.592-11.128-16.045-21.287-45.142-28.02-36.14-8.37-49.25-20.12-46.91-42.93z" fill="#2D9746"/>
				<linearGradient id="ah" x1="-69748" x2="-69786" y1="-78017" y2="-78004" gradientTransform="matrix(1 0 0 -1 70578 -78258)" gradientUnits="userSpaceOnUse">
				<stop stop-color="#FAA71C" offset=".2331"/>
				<stop stop-color="#FFC316" offset=".7607"/>
			</linearGradient>
			<path d="m824.74-236.64c-7.596-7.447-11.197-19.743-11.779-35.195-0.764-20.298-8.765-28.609-21.594-30.021 19.123 7.42 7.202 27.735 12.87 41.879-10.438-7.754-7.1-33.505-28.574-34.681 15.848 5.179 4.593 27.021 15.05 39.696-12.651-0.174-18.466 9.928-34.899 5.236 7.641 5.891 16.146 9.597 30.537 9.597-10.134 6.257-14.581 13.98-18.322 24.865 16.4-17.17 40.26-23.77 56.7-21.38z" fill="url(#ah)"/>
				<radialGradient id="ak" cx="-69621" cy="-78066" r="216.21" gradientTransform="matrix(1 0 0 -1 70578 -78258)" gradientUnits="userSpaceOnUse">
				<stop stop-color="#59AB46" offset=".3479"/>
				<stop stop-color="#80C343" offset=".7607"/>
			</radialGradient>
			<path d="m1014.9-180.83c47.698 6.52 74.912 33.688 79.637 59.227-6.358-14.989-21.039-24.667-38.239-30.189 17.2 22.705 11.656 51.634 34.213 67.563-16.794-17.887-11.684-39.636-24.149-59.512 19.861 11.174 22.884 27.011 27.584 43.986 7.104 25.674 18.706 32.552 27.903 35.936-18.956 0.729-46.439-7.341-59.598-32.571-13.954-26.75-2.348-55.752-36.426-70.926 15.558 13.053 23.861 31.624 14.085 55.773 3.655-35.521-33.422-41.327-39.387-65.548-1.02 18.684 11.633 34.388 23.573 41.974-16.672-5.464-31.134-14.565-37.948-35.362-11.219 34.663 8.611 62.311 20.904 62.311 4.256 0 7.348-2.709 7.348-6.747 0-10.45-18.862-10.45-23.649-30.552 8.623 17.537 41.396 14.377 41.396 33.639 0 15.779-22.099 22.744-36.223 12.938 10.348 13.514 34.444 13.965 41.4-2.301 1.072 6.979-2.12 17.43-12.076 21.272-11.32 4.374-21.849-4.024-21.849-4.024 12.38 17.845 33.929 5.951 55.198 6.326 17.608 0.313 29.337 9.431 34.498 18.112-4.807-2.407-7.516-3.056-12.361-3.161 10.197 6.283 17.577 20.733 14.662 34.786-2.101-10.125-13.891-17.303-36.223-18.851-25.208-1.745-38.578-5.783-47.151-15.072 18.15 8.031 46.885-3.092 66.412 9.774-12.078-13.835-38.781-9.867-57.871-12.933-33.552-5.385-53.996-62.037-51.376-86.902-9.165 37.952 15.33 58.657 20.721 79.613 5.89 22.902-5.453 38.605-16.122 46.67 16.659-24.95-12.017-39.909-7.476-71.872-8.469 31.092 7.188 39.96 7.188 56.06 0 15.813-13.908 21.054-16.674 41.397-2.764-20.344-16.675-25.585-16.675-41.397 0-16.1 15.655-24.968 7.187-56.06 4.545 31.963-24.13 46.922-7.475 71.872-10.666-8.064-22.008-23.768-16.118-46.67 5.387-20.956 29.882-41.661 20.72-79.613 2.617 24.865-17.824 81.518-51.376 86.902-19.093 3.065-45.794-0.902-57.871 12.933 19.524-12.866 48.26-1.743 66.409-9.774-8.57 9.289-21.941 13.327-47.148 15.072-22.336 1.548-34.123 8.726-36.224 18.851-2.915-14.053 4.463-28.503 14.661-34.786-4.847 0.105-7.552 0.754-12.361 3.161 5.162-8.682 16.889-17.799 34.5-18.112 21.271-0.375 42.815 11.519 55.199-6.326 0 0-10.532 8.398-21.849 4.024-9.96-3.843-13.149-14.293-12.077-21.272 6.956 16.266 31.049 15.814 41.397 2.301-14.124 9.807-36.223 2.842-36.223-12.938 0-19.262 32.776-16.102 41.4-33.639-4.788 20.102-23.65 20.102-23.65 30.552 0 4.038 3.093 6.747 7.35 6.747 12.288 0 32.12-27.647 20.899-62.311-6.811 20.797-21.273 29.898-37.948 35.362 11.943-7.586 24.593-23.29 23.574-41.974-5.966 24.221-43.04 30.026-39.388 65.548-9.773-24.149-1.473-42.721 14.089-55.773-34.081 15.174-22.476 44.176-36.429 70.926-13.159 25.23-40.642 33.301-59.597 32.571 9.195-3.384 20.799-10.262 27.903-35.936 4.696-16.976 7.722-32.813 27.585-43.986-12.467 19.876-7.354 41.625-24.149 59.512 22.558-15.93 17.01-44.858 34.21-67.563-17.2 5.522-31.883 15.2-38.236 30.189 4.723-25.538 31.938-52.707 79.637-59.227-49.138-2.088-58.612 25.203-83.375 26.188-15.688 0.624-29.386-13.596-45.423-22.162 19.627 4.978 50.403 18.355 66.698-3.45 0 0-10.036 8.524-29.611 6.04-19.886-2.525-38.017-15.231-87.687-18.401 49.67-3.173 67.801-15.873 87.687-18.399 19.575-2.488 29.611 6.035 29.611 6.035-16.295-21.805-47.071-8.425-66.698-3.449 16.037-8.566 29.734-22.783 45.423-22.16 24.763 0.983 34.237 28.277 83.375 26.186-47.698-6.517-74.914-33.688-79.637-59.223 6.354 14.986 21.036 24.664 38.236 30.187-17.2-22.705-11.652-51.634-34.21-67.561 16.795 17.884 11.683 39.637 24.149 59.51-19.863-11.172-22.889-27.01-27.585-43.985-7.104-25.677-18.708-32.55-27.903-35.938 18.955-0.729 46.438 7.342 59.597 32.57 13.953 26.755 2.348 55.758 36.429 70.926-15.562-13.053-23.862-31.623-14.089-55.773-3.652 35.522 33.422 41.327 39.388 65.548 1.019-18.683-11.631-34.388-23.574-41.974 16.675 5.465 31.138 14.566 37.948 35.363 11.221-34.66-8.611-62.311-20.899-62.311-4.257 0-7.35 2.711-7.35 6.747 0 10.453 18.862 10.453 23.65 30.551-8.624-17.534-41.4-14.371-41.4-33.635 0-15.779 22.099-22.745 36.223-12.939-10.349-13.511-34.441-13.967-41.397 2.302-1.072-6.98 2.117-17.43 12.077-21.274 11.316-4.373 21.849 4.024 21.849 4.024-12.384-17.846-33.929-5.947-55.199-6.326-17.611-0.31-29.338-9.431-34.5-18.109 4.81 2.406 7.515 3.053 12.361 3.162-10.198-6.286-17.576-20.738-14.661-34.787 2.101 10.123 13.888 17.302 36.224 18.848 25.207 1.745 38.578 5.783 47.148 15.077-18.149-8.036-46.885 3.091-66.409-9.775 12.077 13.832 38.778 9.867 57.871 12.931 33.552 5.384 53.993 62.035 51.376 86.9 9.162-37.953-15.333-58.656-20.72-79.613-5.89-22.901 5.452-38.606 16.118-46.669-16.655 24.95 12.02 39.907 7.475 71.875 8.469-31.096-7.187-39.962-7.187-56.062 0-15.813 13.911-21.056 16.675-41.399 2.766 20.344 16.674 25.586 16.674 41.399 0 16.1-15.656 24.966-7.188 56.062-4.541-31.968 24.135-46.925 7.476-71.875 10.669 8.063 22.012 23.768 16.122 46.669-5.391 20.957-29.886 41.66-20.721 79.613-2.62-24.865 17.824-81.517 51.376-86.9 19.09-3.063 45.793 0.901 57.871-12.931-19.527 12.866-48.262 1.739-66.412 9.775 8.573-9.294 21.943-13.332 47.151-15.077 22.332-1.546 34.122-8.725 36.223-18.848 2.915 14.049-4.465 28.501-14.662 34.787 4.846-0.109 7.555-0.756 12.361-3.162-5.161 8.679-16.89 17.8-34.498 18.109-21.27 0.379-42.818-11.52-55.198 6.326 0 0 10.528-8.397 21.849-4.024 9.956 3.845 13.148 14.294 12.076 21.274-6.956-16.269-31.053-15.813-41.4-2.302 14.124-9.806 36.223-2.84 36.223 12.939 0 19.264-32.773 16.101-41.396 33.635 4.787-20.098 23.649-20.098 23.649-30.551 0-4.036-3.092-6.747-7.348-6.747-12.293 0-32.123 27.65-20.904 62.311 6.814-20.797 21.276-29.898 37.948-35.363-11.94 7.586-24.593 23.291-23.573 41.974 5.965-24.221 43.042-30.025 39.387-65.548 9.776 24.15 1.473 42.721-14.085 55.773 34.078-15.168 22.472-44.171 36.426-70.926 13.158-25.229 40.642-33.3 59.598-32.57-9.197 3.388-20.799 10.261-27.903 35.938-4.7 16.976-7.723 32.813-27.584 43.985 12.466-19.873 7.355-41.626 24.149-59.51-22.557 15.927-17.013 44.855-34.213 67.561 17.2-5.522 31.881-15.2 38.239-30.187-4.725 25.534-31.938 52.706-79.637 59.223 49.139 2.092 58.61-25.202 83.371-26.186 15.689-0.623 29.387 13.594 45.426 22.16-19.628-4.976-50.403-18.355-66.7 3.449 0 0 10.036-8.523 29.613-6.035 19.884 2.526 38.015 15.227 87.685 18.399-49.67 3.17-67.801 15.876-87.685 18.401-19.577 2.484-29.613-6.04-29.613-6.04 16.297 21.806 47.072 8.428 66.7 3.45-16.039 8.566-29.736 22.786-45.426 22.162-24.7-0.96-34.1-28.25-83.3-26.16zm54.1-11.79c7.476 2.012 13.988 6.108 23.476 6.108 11.526 0 17.944-4.458 27.125-6.108-9.181-1.649-15.599-6.107-27.125-6.107-9.5 0-16.1 4.1-23.5 6.11zm-117.04-146.33c0 8.301 4.887 13.606 4.887 19.643 0-6.036 4.889-11.342 4.889-19.643 0-7.403-3.646-10.779-4.889-18.528-1.24 7.75-4.89 11.12-4.89 18.53zm-107.23 146.33c-7.475-2.014-13.989-6.107-23.476-6.107-11.525 0-17.942 4.458-27.123 6.107 9.181 1.65 15.598 6.108 27.123 6.108 9.49 0 16-4.1 23.48-6.11zm117.01 146.33c0-8.301-4.889-13.608-4.889-19.643 0 6.034-4.887 11.342-4.887 19.643 0 7.402 3.643 10.781 4.887 18.527 1.24-7.746 4.89-11.125 4.89-18.527zm68.16-146.33c-16.102 0-39.03-8.072-56.635-4.887 5.589-3.4 8.073-5.951 12.073-10.927-7.139 0.702-10.95 1.289-16.388 3.739 4.314-9.751 5.175-15.23 6.036-25.013-4.973 5.777-7.516 9.302-10.637 17.249 1.148-20.124-6.898-24.705-7.475-51.463-0.576 26.758-8.624 31.339-7.476 51.463-3.117-7.947-5.662-11.472-10.637-17.249 0.861 9.782 1.724 15.262 6.038 25.013-5.438-2.45-9.25-3.037-16.39-3.739 4.004 4.976 6.487 7.526 12.075 10.927-17.604-3.186-40.535 4.887-56.634 4.887 16.099 0 39.03 8.071 56.634 4.888-5.588 3.397-8.071 5.947-12.075 10.924 7.14-0.699 10.952-1.29 16.39-3.735-4.314 9.746-5.177 15.226-6.038 25.013 4.975-5.779 7.52-9.306 10.637-17.254-1.148 20.126 6.899 24.706 7.476 51.464 0.576-26.758 8.623-31.338 7.475-51.464 3.121 7.948 5.664 11.475 10.637 17.254-0.861-9.787-1.722-15.267-6.036-25.013 5.438 2.445 9.249 3.036 16.388 3.735-4-4.977-6.484-7.526-12.073-10.924 17.61 3.17 40.56-4.9 56.66-4.9z" fill="url(#ak)"/>
				<linearGradient id="al" x1="86093" x2="86093" y1="-77926" y2="-77881" gradientTransform="matrix(-1 0 0 -1 87002 -78258)" gradientUnits="userSpaceOnUse">
				<stop stop-color="#FAA71C" offset=".2331"/>
				<stop stop-color="#FFC316" offset=".7607"/>
			</linearGradient>
			<path d="m867.93-389.11c4.278 22.41 41.1 26.341 49.075 55.184 6.107-30.973 34.505-32.199 34.9-53.656-5.152 12.642-17.562 9.375-25.739 19.63 1.37-9.967 7.511-19.269 20.067-24.43-12.434-1.744-25.321 2.969-30.973 15.486-4.146-6.761-4.557-13.69-1.092-22.466-7.633 5.889-12.14 15.069-9.162 26.829-11.78-11.77-29.01-5.23-37.08-16.57z" fill="url(#al)"/>
			<path d="m986.37-192.62c-6.898-1.075-15.213-5.187-22.896-1.976 3.763-2.925 1.855-5.694 4.099-8.422-3.105 2.249-5.687 0.815-8.08 4.449 2.488-8.604-0.857-13.194-2.645-22.877-1.788 9.683-5.134 14.273-2.646 22.877-2.389-3.634-4.972-2.2-8.076-4.449 2.244 2.728 0.332 5.497 4.098 8.422-7.684-3.211-16 0.9-22.896 1.976 6.896 1.078 15.212 5.184 22.896 1.975-3.766 2.924-1.854 5.697-4.098 8.421 3.104-2.246 5.688-0.811 8.076-4.444-2.487 8.603 0.858 13.188 2.646 22.875 1.787-9.687 5.133-14.272 2.645-22.875 2.394 3.634 4.975 2.198 8.08 4.444-2.243-2.724-0.336-5.497-4.099-8.421 7.7 3.2 16.02-0.9 22.91-1.98z" fill="#FFC316"/>
				<linearGradient id="am" x1="86638" x2="86600" y1="-78017" y2="-78004" gradientTransform="matrix(-1 0 0 -1 87002 -78258)" gradientUnits="userSpaceOnUse">
				<stop stop-color="#FAA71C" offset=".2331"/>
				<stop stop-color="#FFC316" offset=".7607"/>
			</linearGradient>
			<path d="m369.58-236.64c7.596-7.447 11.2-19.743 11.779-35.195 0.764-20.298 8.767-28.609 21.594-30.021-19.122 7.42-7.2 27.735-12.868 41.879 10.434-7.754 7.099-33.505 28.573-34.681-15.848 5.179-4.594 27.021-15.05 39.696 12.651-0.174 18.469 9.928 34.899 5.236-7.643 5.891-16.146 9.597-30.536 9.597 10.133 6.257 14.583 13.98 18.32 24.865-16.4-17.17-40.26-23.77-56.7-21.38z" fill="url(#am)"/>
			<path d="m347.33-303.61c-8.943 7.417-17.273 20.191-18.539 36.863-1.744-16.576-5.184-29.381-13.305-38.824 0 0 10.251 5.016 13.96 14.831 4.8-8.5 17.89-12.87 17.89-12.87z" fill="#2D9746"/>
			<path d="m370.02-386.05c-1.972 9.671-10.219 18.109-20.938 22.248 4.39-11.331 2.761-22.356-3.491-32.064 1.457 12.584-2.379 21.405-9.379 29.229 2.206-7.823 2.013-15.016-1.744-22.466 1.525 13.741-9.994 20.72-25.301 29.883-20.515 12.28-27.996 25.992-31.192 44.116 5.592-11.128 16.045-21.287 45.142-28.02 36.12-8.37 49.24-20.12 46.9-42.93z" fill="#2D9746"/>
				<linearGradient id="an" x1="-70294" x2="-70294" y1="-77926" y2="-77881" gradientTransform="matrix(1 0 0 -1 70578 -78258)" gradientUnits="userSpaceOnUse">
				<stop stop-color="#FAA71C" offset=".2331"/>
				<stop stop-color="#FFC316" offset=".7607"/>
			</linearGradient>
			<path d="m326.39-389.11c-4.282 22.41-41.104 26.341-49.079 55.184-6.105-30.973-34.505-32.199-34.897-53.656 5.149 12.642 17.559 9.375 25.739 19.63-1.373-9.967-7.509-19.269-20.067-24.43 12.431-1.744 25.319 2.969 30.974 15.486 4.143-6.761 4.556-13.69 1.088-22.466 7.637 5.889 12.141 15.069 9.162 26.829 11.79-11.77 29.02-5.23 37.09-16.57z" fill="url(#an)"/>
				<radialGradient id="ao" cx="-70341" cy="-78066" r="216.21" gradientTransform="matrix(1 0 0 -1 70578 -78258)" gradientUnits="userSpaceOnUse">
				<stop stop-color="#59AB46" offset=".3479"/>
				<stop stop-color="#80C343" offset=".7607"/>
			</radialGradient>
			<path d="m295.55-180.83c47.698 6.52 74.912 33.688 79.637 59.227-6.358-14.989-21.039-24.667-38.239-30.189 17.2 22.705 11.656 51.634 34.213 67.563-16.794-17.887-11.684-39.636-24.149-59.512 19.861 11.174 22.884 27.011 27.584 43.986 7.104 25.674 18.706 32.552 27.903 35.936-18.956 0.729-46.439-7.341-59.598-32.571-13.954-26.75-2.348-55.752-36.426-70.926 15.558 13.053 23.861 31.624 14.085 55.773 3.655-35.521-33.422-41.327-39.387-65.548-1.02 18.684 11.633 34.388 23.573 41.974-16.672-5.464-31.134-14.565-37.948-35.362-11.219 34.663 8.611 62.311 20.904 62.311 4.256 0 7.348-2.709 7.348-6.747 0-10.45-18.862-10.45-23.65-30.552 8.624 17.537 41.397 14.377 41.397 33.639 0 15.779-22.099 22.744-36.223 12.938 10.348 13.514 34.444 13.965 41.4-2.301 1.072 6.979-2.12 17.43-12.076 21.272-11.32 4.374-21.849-4.024-21.849-4.024 12.38 17.845 33.929 5.951 55.198 6.326 17.608 0.313 29.337 9.431 34.498 18.112-4.807-2.407-7.516-3.056-12.361-3.161 10.197 6.283 17.577 20.733 14.662 34.786-2.101-10.125-13.891-17.303-36.223-18.851-25.208-1.745-38.578-5.783-47.151-15.072 18.15 8.031 46.885-3.092 66.412 9.774-12.06-13.83-38.76-9.862-57.85-12.928-33.552-5.385-53.996-62.037-51.376-86.902-9.165 37.952 15.331 58.657 20.721 79.613 5.89 22.902-5.454 38.605-16.122 46.67 16.66-24.95-12.017-39.909-7.475-71.872-8.469 31.092 7.187 39.96 7.187 56.06 0 15.813-13.909 21.054-16.674 41.397-2.763-20.344-16.674-25.585-16.674-41.397 0-16.1 15.655-24.968 7.187-56.06 4.544 31.963-24.131 46.922-7.475 71.872-10.666-8.064-22.008-23.768-16.118-46.67 5.386-20.956 29.881-41.661 20.719-79.613 2.618 24.865-17.824 81.518-51.376 86.902-19.092 3.065-45.793-0.902-57.871 12.933 19.524-12.866 48.26-1.743 66.41-9.774-8.57 9.289-21.941 13.327-47.148 15.072-22.34 1.549-34.13 8.727-36.231 18.852-2.915-14.053 4.463-28.503 14.662-34.786-4.847 0.105-7.552 0.754-12.361 3.161 5.162-8.682 16.888-17.799 34.5-18.112 21.27-0.375 42.815 11.519 55.199-6.326 0 0-10.532 8.398-21.849 4.024-9.96-3.843-13.149-14.293-12.077-21.272 6.956 16.266 31.049 15.814 41.397 2.301-14.124 9.807-36.223 2.842-36.223-12.938 0-19.262 32.777-16.102 41.401-33.639-4.789 20.102-23.65 20.102-23.65 30.552 0 4.038 3.092 6.747 7.349 6.747 12.289 0 32.121-27.647 20.9-62.311-6.811 20.797-21.274 29.898-37.948 35.362 11.943-7.586 24.593-23.29 23.574-41.974-5.965 24.221-43.04 30.026-39.388 65.548-9.773-24.149-1.472-42.721 14.089-55.773-34.081 15.174-22.476 44.176-36.429 70.926-13.159 25.23-40.641 33.301-59.597 32.571 9.195-3.384 20.799-10.262 27.903-35.936 4.697-16.976 7.722-32.813 27.585-43.986-12.467 19.876-7.355 41.625-24.15 59.512 22.558-15.93 17.01-44.858 34.21-67.563-17.2 5.522-31.883 15.2-38.236 30.189 4.722-25.538 31.938-52.707 79.637-59.227-49.138-2.088-58.613 25.203-83.375 26.188-15.688 0.624-29.386-13.596-45.423-22.162 19.627 4.978 50.404 18.355 66.699-3.45 0 0-10.036 8.524-29.611 6.04-19.889-2.53-38.019-15.24-87.689-18.41 49.67-3.173 67.8-15.873 87.687-18.399 19.575-2.488 29.611 6.035 29.611 6.035-16.295-21.805-47.071-8.425-66.699-3.449 16.037-8.566 29.735-22.783 45.423-22.16 24.763 0.983 34.237 28.277 83.375 26.186-47.698-6.517-74.915-33.688-79.637-59.223 6.354 14.986 21.036 24.664 38.236 30.187-17.2-22.705-11.652-51.634-34.21-67.561 16.795 17.884 11.683 39.637 24.15 59.51-19.864-11.172-22.889-27.01-27.585-43.985-7.104-25.677-18.708-32.55-27.903-35.938 18.956-0.729 46.438 7.342 59.597 32.57 13.953 26.755 2.348 55.758 36.429 70.926-15.561-13.053-23.862-31.623-14.089-55.773-3.652 35.522 33.422 41.327 39.388 65.548 1.019-18.683-11.63-34.388-23.574-41.974 16.674 5.465 31.138 14.566 37.948 35.363 11.221-34.66-8.611-62.311-20.9-62.311-4.257 0-7.349 2.711-7.349 6.747 0 10.453 18.862 10.453 23.65 30.551-8.624-17.534-41.401-14.371-41.401-33.635 0-15.779 22.099-22.745 36.223-12.939-10.349-13.511-34.442-13.967-41.397 2.302-1.073-6.98 2.117-17.43 12.077-21.274 11.317-4.373 21.849 4.024 21.849 4.024-12.383-17.846-33.929-5.947-55.199-6.326-17.612-0.31-29.338-9.431-34.5-18.109 4.809 2.406 7.515 3.053 12.361 3.162-10.198-6.286-17.577-20.738-14.662-34.787 2.101 10.123 13.888 17.302 36.224 18.848 25.207 1.745 38.578 5.783 47.148 15.077-18.149-8.036-46.885 3.091-66.41-9.775 12.078 13.832 38.779 9.867 57.871 12.931 33.552 5.384 53.994 62.035 51.376 86.9 9.162-37.953-15.333-58.656-20.719-79.613-5.89-22.901 5.452-38.606 16.118-46.669-16.656 24.95 12.019 39.907 7.475 71.875 8.468-31.096-7.187-39.962-7.187-56.062 0-15.813 13.911-21.056 16.674-41.399 2.766 20.344 16.674 25.586 16.674 41.399 0 16.1-15.656 24.966-7.187 56.062-4.542-31.968 24.135-46.925 7.475-71.875 10.668 8.063 22.012 23.768 16.122 46.669-5.39 20.957-29.886 41.66-20.721 79.613-2.62-24.865 17.824-81.517 51.376-86.9 19.09-3.063 45.793 0.901 57.871-12.931-19.527 12.866-48.262 1.739-66.412 9.775 8.573-9.294 21.943-13.332 47.151-15.077 22.332-1.546 34.122-8.725 36.223-18.848 2.915 14.049-4.465 28.501-14.662 34.787 4.846-0.109 7.555-0.756 12.361-3.162-5.161 8.679-16.89 17.8-34.498 18.109-21.27 0.379-42.818-11.52-55.198 6.326 0 0 10.528-8.397 21.849-4.024 9.956 3.845 13.148 14.294 12.076 21.274-6.956-16.269-31.053-15.813-41.4-2.302 14.124-9.806 36.223-2.84 36.223 12.939 0 19.264-32.773 16.101-41.397 33.635 4.788-20.098 23.65-20.098 23.65-30.551 0-4.036-3.092-6.747-7.348-6.747-12.293 0-32.123 27.65-20.904 62.311 6.814-20.797 21.276-29.898 37.948-35.363-11.94 7.586-24.593 23.291-23.573 41.974 5.965-24.221 43.042-30.025 39.387-65.548 9.776 24.15 1.473 42.721-14.085 55.773 34.078-15.168 22.472-44.171 36.426-70.926 13.158-25.229 40.642-33.3 59.598-32.57-9.197 3.388-20.799 10.261-27.903 35.938-4.7 16.976-7.723 32.813-27.584 43.985 12.466-19.873 7.355-41.626 24.149-59.51-22.557 15.927-17.013 44.855-34.213 67.561 17.2-5.522 31.881-15.2 38.239-30.187-4.725 25.534-31.938 52.706-79.637 59.223 49.139 2.092 58.61-25.202 83.371-26.186 15.689-0.623 29.387 13.594 45.426 22.16-19.628-4.976-50.403-18.355-66.7 3.449 0 0 10.036-8.523 29.613-6.035 19.884 2.526 38.015 15.227 87.685 18.399-49.67 3.17-67.801 15.876-87.685 18.401-19.577 2.484-29.613-6.04-29.613-6.04 16.297 21.806 47.072 8.428 66.7 3.45-16.039 8.566-29.736 22.786-45.426 22.162-24.78-0.96-34.26-28.25-83.39-26.16zm54.04-11.79c7.476 2.012 13.988 6.108 23.476 6.108 11.526 0 17.944-4.458 27.125-6.108-9.181-1.649-15.599-6.107-27.125-6.107-9.5 0-16.01 4.1-23.49 6.11zm-117.01-146.33c0 8.301 4.886 13.606 4.886 19.643 0-6.036 4.889-11.342 4.889-19.643 0-7.403-3.646-10.779-4.889-18.528-1.24 7.75-4.89 11.12-4.89 18.53zm-107.23 146.33c-7.475-2.014-13.99-6.107-23.476-6.107-11.526 0-17.942 4.458-27.123 6.107 9.181 1.65 15.597 6.108 27.123 6.108 9.49 0 16-4.1 23.48-6.11zm117.01 146.33c0-8.301-4.889-13.608-4.889-19.643 0 6.034-4.886 11.342-4.886 19.643 0 7.402 3.643 10.781 4.886 18.527 1.24-7.746 4.89-11.125 4.89-18.527zm68.14-146.33c-16.102 0-39.03-8.072-56.635-4.887 5.589-3.4 8.073-5.951 12.073-10.927-7.139 0.702-10.95 1.289-16.388 3.739 4.314-9.751 5.175-15.23 6.036-25.013-4.972 5.777-7.516 9.302-10.637 17.249 1.148-20.124-6.899-24.705-7.475-51.463-0.576 26.758-8.624 31.339-7.475 51.463-3.117-7.947-5.662-11.472-10.637-17.249 0.861 9.782 1.724 15.262 6.039 25.013-5.438-2.45-9.251-3.037-16.39-3.739 4.003 4.976 6.488 7.526 12.076 10.927-17.604-3.186-40.536 4.887-56.635 4.887 16.099 0 39.03 8.071 56.635 4.888-5.588 3.397-8.072 5.947-12.076 10.924 7.139-0.699 10.953-1.29 16.39-3.735-4.314 9.746-5.177 15.226-6.039 25.013 4.975-5.779 7.52-9.306 10.637-17.254-1.148 20.126 6.899 24.706 7.475 51.464 0.576-26.758 8.623-31.338 7.475-51.464 3.121 7.948 5.665 11.475 10.637 17.254-0.861-9.787-1.722-15.267-6.036-25.013 5.438 2.445 9.249 3.036 16.388 3.735-4-4.977-6.484-7.526-12.073-10.924 17.6 3.17 40.53-4.9 56.64-4.9z" fill="url(#ao)"/>
			<path d="m266.99-192.62c-6.898-1.075-15.213-5.187-22.896-1.976 3.763-2.925 1.855-5.694 4.099-8.422-3.105 2.249-5.687 0.815-8.08 4.449 2.488-8.604-0.858-13.194-2.646-22.877-1.788 9.683-5.133 14.273-2.646 22.877-2.389-3.634-4.972-2.2-8.076-4.449 2.244 2.728 0.332 5.497 4.098 8.422-7.684-3.211-16 0.9-22.896 1.976 6.896 1.078 15.213 5.184 22.896 1.975-3.766 2.924-1.854 5.697-4.098 8.421 3.104-2.246 5.687-0.811 8.076-4.444-2.488 8.603 0.858 13.188 2.646 22.875 1.788-9.687 5.133-14.272 2.646-22.875 2.393 3.634 4.975 2.198 8.08 4.444-2.244-2.724-0.336-5.497-4.099-8.421 7.69 3.2 16.01-0.9 22.9-1.98z" fill="#FFC316"/>
				<linearGradient id="ap" x1="86029" x2="86029" y1="61302" y2="61348" gradientTransform="matrix(-1 0 0 1 86938 -61773)" gradientUnits="userSpaceOnUse">
				<stop stop-color="#FAA71C" offset=".2331"/>
				<stop stop-color="#FFC316" offset=".7607"/>
			</linearGradient>
			<path d="m867.93-413.61c4.278-22.41 41.1-26.343 49.075-55.186 6.107 30.973 34.505 32.199 34.9 53.658-5.152-12.642-17.562-9.375-25.739-19.63 1.37 9.968 7.511 19.268 20.067 24.428-12.434 1.746-25.321-2.969-30.973-15.486-4.146 6.763-4.557 13.69-1.092 22.466-7.633-5.89-12.14-15.067-9.162-26.827-11.78 11.78-29.01 5.23-37.08 16.58z" fill="url(#ap)"/>
			<path d="m846.99-499.12c8.942-7.416 17.275-20.188 18.542-36.863 1.743 16.578 5.18 29.388 13.304 38.827 0 0-10.254-5.018-13.96-14.834-4.79 8.5-17.88 12.86-17.88 12.86z" fill="#2D9746"/>
			<path d="m824.31-416.67c1.976-9.673 10.22-18.11 20.94-22.248-4.392 11.332-2.759 22.357 3.491 32.064-1.456-12.583 2.38-21.403 9.377-29.229-2.202 7.825-2.013 15.017 1.747 22.467-1.528-13.742 9.994-20.719 25.303-29.884 20.513-12.278 27.994-25.992 31.188-44.113-5.592 11.124-16.045 21.287-45.142 28.018-36.14 8.36-49.25 20.12-46.91 42.92z" fill="#2D9746"/>
				<radialGradient id="aq" cx="-69621" cy="-77648" r="216.21" gradientTransform="matrix(1 0 0 -1 70578 -78258)" gradientUnits="userSpaceOnUse">
				<stop stop-color="#59AB46" offset=".3479"/>
				<stop stop-color="#80C343" offset=".7607"/>
			</radialGradient>
			<path d="m1014.9-598.32c47.698 6.52 74.912 33.688 79.637 59.226-6.358-14.989-21.039-24.667-38.239-30.189 17.2 22.705 11.656 51.634 34.213 67.563-16.794-17.887-11.684-39.636-24.149-59.512 19.861 11.174 22.884 27.011 27.584 43.986 7.104 25.674 18.706 32.552 27.903 35.936-18.956 0.729-46.439-7.341-59.598-32.571-13.954-26.75-2.348-55.752-36.426-70.925 15.558 13.052 23.861 31.624 14.085 55.773 3.655-35.521-33.422-41.327-39.387-65.547-1.02 18.683 11.633 34.387 23.573 41.973-16.672-5.464-31.134-14.565-37.948-35.362-11.219 34.663 8.611 62.311 20.904 62.311 4.256 0 7.348-2.709 7.348-6.747 0-10.45-18.862-10.45-23.649-30.552 8.623 17.537 41.396 14.377 41.396 33.639 0 15.779-22.099 22.744-36.223 12.938 10.348 13.514 34.444 13.965 41.4-2.301 1.072 6.979-2.12 17.43-12.076 21.272-11.32 4.374-21.849-4.024-21.849-4.024 12.38 17.845 33.929 5.951 55.198 6.326 17.608 0.313 29.337 9.431 34.498 18.112-4.807-2.407-7.516-3.056-12.361-3.161 10.197 6.283 17.577 20.733 14.662 34.786-2.101-10.125-13.891-17.303-36.223-18.851-25.208-1.745-38.578-5.783-47.151-15.072 18.15 8.031 46.885-3.092 66.412 9.774-12.078-13.835-38.781-9.867-57.871-12.933-33.552-5.385-53.996-62.037-51.376-86.902-9.165 37.952 15.33 58.657 20.721 79.613 5.89 22.902-5.453 38.605-16.122 46.67 16.659-24.95-12.017-39.909-7.476-71.872-8.469 31.092 7.188 39.96 7.188 56.06 0 15.813-13.908 21.054-16.674 41.397-2.764-20.344-16.675-25.585-16.675-41.397 0-16.1 15.655-24.968 7.187-56.06 4.545 31.963-24.13 46.922-7.475 71.872-10.666-8.064-22.008-23.768-16.118-46.67 5.387-20.956 29.882-41.661 20.72-79.613 2.617 24.865-17.824 81.518-51.376 86.902-19.093 3.065-45.794-0.902-57.871 12.933 19.524-12.866 48.26-1.743 66.409-9.774-8.57 9.289-21.941 13.327-47.148 15.072-22.336 1.548-34.123 8.726-36.224 18.851-2.915-14.053 4.463-28.503 14.661-34.786-4.847 0.105-7.552 0.754-12.361 3.161 5.162-8.682 16.889-17.799 34.5-18.112 21.271-0.375 42.815 11.519 55.199-6.326 0 0-10.532 8.398-21.849 4.024-9.96-3.843-13.149-14.293-12.077-21.272 6.956 16.266 31.049 15.814 41.397 2.301-14.124 9.807-36.223 2.842-36.223-12.938 0-19.262 32.776-16.102 41.4-33.639-4.788 20.102-23.65 20.102-23.65 30.552 0 4.038 3.093 6.747 7.35 6.747 12.288 0 32.12-27.647 20.899-62.311-6.811 20.797-21.273 29.898-37.948 35.362 11.943-7.586 24.593-23.29 23.574-41.973-5.966 24.22-43.04 30.026-39.388 65.547-9.773-24.149-1.473-42.721 14.089-55.773-34.081 15.173-22.476 44.175-36.429 70.925-13.159 25.23-40.642 33.301-59.597 32.571 9.195-3.384 20.799-10.262 27.903-35.936 4.696-16.976 7.722-32.813 27.585-43.986-12.467 19.876-7.354 41.625-24.149 59.512 22.558-15.93 17.01-44.858 34.21-67.563-17.2 5.522-31.883 15.2-38.236 30.189 4.723-25.538 31.938-52.707 79.637-59.226-49.138-2.088-58.612 25.203-83.375 26.188-15.688 0.624-29.386-13.596-45.423-22.162 19.627 4.978 50.403 18.355 66.698-3.45 0 0-10.036 8.524-29.611 6.04-19.886-2.525-38.017-15.231-87.687-18.401 49.67-3.173 67.801-15.874 87.687-18.4 19.575-2.488 29.611 6.036 29.611 6.036-16.295-21.805-47.071-8.425-66.698-3.45 16.037-8.566 29.734-22.783 45.423-22.16 24.763 0.983 34.237 28.277 83.375 26.186-47.698-6.517-74.914-33.689-79.637-59.223 6.354 14.986 21.036 24.664 38.236 30.187-17.2-22.706-11.652-51.634-34.21-67.561 16.795 17.884 11.683 39.637 24.149 59.51-19.863-11.171-22.889-27.009-27.585-43.985-7.104-25.677-18.708-32.55-27.903-35.938 18.955-0.729 46.438 7.342 59.597 32.57 13.953 26.755 2.348 55.758 36.429 70.926-15.562-13.053-23.862-31.624-14.089-55.773-3.652 35.522 33.422 41.327 39.388 65.548 1.019-18.683-11.631-34.388-23.574-41.974 16.675 5.465 31.138 14.566 37.948 35.363 11.221-34.66-8.611-62.311-20.899-62.311-4.257 0-7.35 2.711-7.35 6.747 0 10.453 18.862 10.453 23.65 30.551-8.624-17.534-41.4-14.371-41.4-33.635 0-15.779 22.099-22.745 36.223-12.939-10.349-13.511-34.441-13.967-41.397 2.301-1.072-6.98 2.117-17.43 12.077-21.274 11.316-4.373 21.849 4.024 21.849 4.024-12.384-17.845-33.929-5.947-55.199-6.326-17.611-0.31-29.338-9.431-34.5-18.11 4.81 2.406 7.515 3.053 12.361 3.162-10.198-6.286-17.576-20.738-14.661-34.787 2.101 10.124 13.888 17.302 36.224 18.848 25.207 1.746 38.578 5.783 47.148 15.077-18.149-8.036-46.885 3.091-66.409-9.775 12.077 13.833 38.778 9.867 57.871 12.931 33.552 5.383 53.993 62.035 51.376 86.9 9.162-37.953-15.333-58.656-20.72-79.613-5.89-22.901 5.452-38.606 16.118-46.668-16.655 24.95 12.02 39.907 7.475 71.875 8.469-31.095-7.187-39.962-7.187-56.062 0-15.813 13.911-21.056 16.675-41.399 2.766 20.343 16.674 25.586 16.674 41.399 0 16.1-15.656 24.966-7.188 56.062-4.541-31.968 24.135-46.924 7.476-71.875 10.669 8.063 22.012 23.768 16.122 46.668-5.391 20.957-29.886 41.661-20.721 79.613-2.62-24.865 17.824-81.517 51.376-86.9 19.09-3.064 45.793 0.901 57.871-12.931-19.527 12.867-48.262 1.739-66.412 9.775 8.573-9.294 21.943-13.332 47.151-15.077 22.332-1.546 34.122-8.724 36.223-18.848 2.915 14.049-4.465 28.501-14.662 34.787 4.846-0.109 7.555-0.756 12.361-3.162-5.161 8.679-16.89 17.8-34.498 18.11-21.27 0.378-42.818-11.52-55.198 6.326 0 0 10.528-8.397 21.849-4.024 9.956 3.845 13.148 14.294 12.076 21.274-6.956-16.269-31.053-15.813-41.4-2.301 14.124-9.806 36.223-2.84 36.223 12.939 0 19.264-32.773 16.101-41.396 33.635 4.787-20.098 23.649-20.098 23.649-30.551 0-4.036-3.092-6.747-7.348-6.747-12.293 0-32.123 27.65-20.904 62.311 6.814-20.797 21.276-29.898 37.948-35.363-11.94 7.586-24.593 23.291-23.573 41.974 5.965-24.221 43.042-30.025 39.387-65.548 9.776 24.15 1.473 42.72-14.085 55.773 34.078-15.168 22.472-44.171 36.426-70.926 13.158-25.229 40.642-33.299 59.598-32.57-9.197 3.388-20.799 10.261-27.903 35.938-4.7 16.976-7.723 32.813-27.584 43.985 12.466-19.873 7.355-41.625 24.149-59.51-22.557 15.927-17.013 44.855-34.213 67.561 17.2-5.523 31.881-15.201 38.239-30.187-4.725 25.534-31.938 52.706-79.637 59.223 49.139 2.092 58.61-25.202 83.371-26.186 15.689-0.623 29.387 13.593 45.426 22.16-19.628-4.975-50.403-18.355-66.7 3.45 0 0 10.036-8.524 29.613-6.036 19.884 2.526 38.015 15.227 87.685 18.4-49.67 3.17-67.801 15.876-87.685 18.401-19.577 2.484-29.613-6.04-29.613-6.04 16.297 21.805 47.072 8.427 66.7 3.45-16.039 8.566-29.736 22.786-45.426 22.162-24.7-0.94-34.1-28.23-83.3-26.15zm54.1-11.78c7.476 2.011 13.988 6.108 23.476 6.108 11.526 0 17.944-4.458 27.125-6.108-9.181-1.649-15.599-6.107-27.125-6.107-9.5 0-16.1 4.09-23.5 6.11zm-117.04-146.34c0 8.301 4.887 13.606 4.887 19.643 0-6.036 4.889-11.341 4.889-19.643 0-7.403-3.646-10.779-4.889-18.528-1.24 7.76-4.89 11.13-4.89 18.53zm-107.23 146.34c-7.475-2.014-13.989-6.107-23.476-6.107-11.525 0-17.942 4.458-27.123 6.107 9.181 1.65 15.598 6.108 27.123 6.108 9.49 0 16-4.1 23.48-6.11zm117.01 146.33c0-8.301-4.889-13.608-4.889-19.643 0 6.034-4.887 11.342-4.887 19.643 0 7.402 3.643 10.781 4.887 18.527 1.24-7.75 4.89-11.13 4.89-18.53zm68.16-146.33c-16.102 0-39.03-8.072-56.635-4.887 5.589-3.401 8.073-5.951 12.073-10.927-7.139 0.703-10.95 1.29-16.388 3.739 4.314-9.75 5.175-15.23 6.036-25.012-4.973 5.777-7.516 9.301-10.637 17.249 1.148-20.125-6.898-24.706-7.475-51.463-0.576 26.757-8.624 31.338-7.476 51.463-3.117-7.948-5.662-11.472-10.637-17.249 0.861 9.782 1.724 15.262 6.038 25.012-5.438-2.45-9.25-3.037-16.39-3.739 4.004 4.976 6.487 7.526 12.075 10.927-17.604-3.186-40.535 4.887-56.634 4.887 16.099 0 39.03 8.071 56.634 4.888-5.588 3.397-8.071 5.947-12.075 10.923 7.14-0.699 10.952-1.29 16.39-3.735-4.314 9.747-5.177 15.226-6.038 25.013 4.975-5.779 7.52-9.306 10.637-17.253-1.148 20.125 6.899 24.706 7.476 51.463 0.576-26.758 8.623-31.338 7.475-51.463 3.121 7.948 5.664 11.474 10.637 17.253-0.861-9.787-1.722-15.266-6.036-25.013 5.438 2.446 9.249 3.037 16.388 3.735-4-4.976-6.484-7.526-12.073-10.923 17.61 3.17 40.56-4.9 56.66-4.9z" fill="url(#aq)"/>
				<linearGradient id="ar" x1="-69748" x2="-69786" y1="61226" y2="61239" gradientTransform="translate(70578 -61787)" gradientUnits="userSpaceOnUse">
				<stop stop-color="#FAA71C" offset=".2331"/>
				<stop stop-color="#FFC316" offset=".7607"/>
			</linearGradient>
			<path d="m824.74-566.08c-7.596 7.447-11.197 19.747-11.779 35.195-0.764 20.299-8.765 28.611-21.594 30.022 19.123-7.42 7.202-27.731 12.87-41.878-10.438 7.756-7.1 33.504-28.574 34.679 15.848-5.178 4.593-27.018 15.05-39.696-12.651 0.175-18.466-9.923-34.899-5.235 7.641-5.888 16.146-9.597 30.537-9.597-10.134-6.254-14.581-13.977-18.322-24.865 16.4 17.17 40.26 23.77 56.7 21.38z" fill="url(#ar)"/>
			<path d="m986.37-610.1c-6.898-1.076-15.213-5.187-22.896-1.976 3.763-2.925 1.855-5.695 4.099-8.422-3.105 2.249-5.687 0.815-8.08 4.449 2.488-8.604-0.857-13.194-2.645-22.877-1.788 9.683-5.134 14.273-2.646 22.877-2.389-3.634-4.972-2.2-8.076-4.449 2.244 2.728 0.332 5.497 4.098 8.422-7.684-3.211-16 0.9-22.896 1.976 6.896 1.078 15.212 5.184 22.896 1.974-3.766 2.924-1.854 5.698-4.098 8.421 3.104-2.246 5.688-0.81 8.076-4.444-2.487 8.602 0.858 13.188 2.646 22.875 1.787-9.686 5.133-14.272 2.645-22.875 2.394 3.634 4.975 2.198 8.08 4.444-2.243-2.723-0.336-5.497-4.099-8.421 7.7 3.22 16.02-0.88 22.91-1.96z" fill="#FFC316"/>
				<linearGradient id="x" x1="86388" x2="86388" y1="61511" y2="61557" gradientTransform="matrix(-1 0 0 1 86938 -61773)" gradientUnits="userSpaceOnUse">
				<stop stop-color="#FAA71C" offset=".2331"/>
				<stop stop-color="#FFC316" offset=".7607"/>
			</linearGradient>
			<path d="m508.24-204.87c4.278-22.41 41.1-26.343 49.075-55.186 6.108 30.973 34.505 32.199 34.9 53.658-5.152-12.642-17.561-9.375-25.739-19.63 1.37 9.968 7.511 19.268 20.067 24.428-12.434 1.746-25.321-2.969-30.973-15.486-4.146 6.763-4.557 13.69-1.092 22.466-7.633-5.89-12.14-15.067-9.162-26.827-11.79 11.78-29.02 5.23-37.09 16.58z" fill="url(#x)"/>
				<linearGradient id="y" x1="-69870" x2="-69870" y1="61511" y2="61557" gradientTransform="translate(70514 -61773)" gradientUnits="userSpaceOnUse">
				<stop stop-color="#FAA71C" offset=".2331"/>
				<stop stop-color="#FFC316" offset=".7607"/>
			</linearGradient>
			<path d="m686.08-204.87c-4.282-22.41-41.104-26.343-49.079-55.186-6.105 30.973-34.505 32.199-34.897 53.658 5.149-12.642 17.559-9.375 25.739-19.63-1.373 9.968-7.509 19.268-20.067 24.428 12.431 1.746 25.319-2.969 30.974-15.486 4.143 6.763 4.556 13.69 1.088 22.466 7.637-5.89 12.141-15.067 9.162-26.827 11.79 11.78 29.02 5.23 37.09 16.58z" fill="url(#y)"/>
				<linearGradient id="z" x1="86278" x2="86240" y1="-77808" y2="-77795" gradientTransform="matrix(-1 0 0 -1 87002 -78258)" gradientUnits="userSpaceOnUse">
				<stop stop-color="#FAA71C" offset=".2331"/>
				<stop stop-color="#FFC316" offset=".7607"/>
			</linearGradient>
			<path d="m729.27-445.38c7.596-7.447 11.2-19.743 11.779-35.195 0.764-20.298 8.767-28.61 21.594-30.022-19.122 7.42-7.2 27.735-12.868 41.879 10.434-7.753 7.099-33.505 28.573-34.681-15.848 5.179-4.594 27.022-15.05 39.696 12.651-0.174 18.469 9.928 34.899 5.237-7.643 5.891-16.146 9.596-30.536 9.596 10.133 6.257 14.583 13.981 18.32 24.865-16.4-17.17-40.26-23.77-56.7-21.38z" fill="url(#z)"/>
			<path d="m487.3-512.35c8.943 7.417 17.276 20.191 18.542 36.863 1.744-16.576 5.18-29.381 13.304-38.824 0 0-10.254 5.016-13.96 14.831-4.79-8.5-17.88-12.87-17.88-12.87z" fill="#2D9746"/>
			<path d="m464.62-594.8c1.976 9.671 10.22 18.11 20.941 22.248-4.392-11.331-2.759-22.356 3.491-32.064-1.456 12.583 2.38 21.405 9.377 29.229-2.203-7.824-2.013-15.016 1.747-22.466-1.529 13.741 9.994 20.72 25.302 29.883 20.513 12.28 27.994 25.992 31.188 44.116-5.592-11.127-16.045-21.287-45.142-28.02-36.14-8.36-49.25-20.12-46.91-42.93z" fill="#2D9746"/>
				<linearGradient id="aa" x1="-70108" x2="-70146" y1="-77808" y2="-77795" gradientTransform="matrix(1 0 0 -1 70578 -78258)" gradientUnits="userSpaceOnUse">
				<stop stop-color="#FAA71C" offset=".2331"/>
				<stop stop-color="#FFC316" offset=".7607"/>
			</linearGradient>
			<path d="m465.05-445.38c-7.596-7.447-11.197-19.743-11.779-35.195-0.763-20.298-8.765-28.61-21.593-30.022 19.123 7.42 7.202 27.735 12.87 41.879-10.437-7.753-7.1-33.505-28.574-34.681 15.847 5.179 4.593 27.022 15.05 39.696-12.651-0.174-18.466 9.928-34.899 5.237 7.64 5.891 16.146 9.596 30.537 9.596-10.133 6.257-14.581 13.981-18.322 24.865 16.4-17.17 40.26-23.77 56.7-21.38z" fill="url(#aa)"/>
			<path d="m707.02-512.35c-8.943 7.417-17.273 20.191-18.539 36.863-1.744-16.576-5.184-29.381-13.305-38.824 0 0 10.251 5.016 13.96 14.831 4.8-8.5 17.88-12.87 17.88-12.87z" fill="#2D9746"/>
			<path d="m729.7-594.8c-1.972 9.671-10.219 18.11-20.938 22.248 4.39-11.331 2.761-22.356-3.491-32.064 1.457 12.583-2.379 21.405-9.379 29.229 2.206-7.824 2.013-15.016-1.744-22.466 1.525 13.741-9.994 20.72-25.301 29.883-20.515 12.28-27.996 25.992-31.192 44.116 5.592-11.127 16.045-21.287 45.142-28.02 36.13-8.36 49.25-20.12 46.9-42.93z" fill="#2D9746"/>
				<linearGradient id="ab" x1="-69934" x2="-69934" y1="-77717" y2="-77672" gradientTransform="matrix(1 0 0 -1 70578 -78258)" gradientUnits="userSpaceOnUse">
				<stop stop-color="#FAA71C" offset=".2331"/>
				<stop stop-color="#FFC316" offset=".7607"/>
			</linearGradient>
			<path d="m686.08-597.85c-4.282 22.41-41.104 26.341-49.079 55.184-6.105-30.973-34.505-32.2-34.897-53.657 5.149 12.642 17.559 9.375 25.739 19.63-1.373-9.967-7.509-19.269-20.067-24.43 12.431-1.744 25.319 2.969 30.974 15.487 4.143-6.761 4.556-13.69 1.088-22.466 7.637 5.889 12.141 15.069 9.162 26.829 11.79-11.77 29.02-5.23 37.09-16.57z" fill="url(#ab)"/>
			<path d="m487.3-290.38c8.943-7.416 17.276-20.188 18.542-36.863 1.744 16.578 5.18 29.388 13.304 38.827 0 0-10.254-5.018-13.96-14.834-4.79 8.5-17.88 12.86-17.88 12.86z" fill="#2D9746"/>
			<path d="m464.62-207.93c1.976-9.673 10.22-18.11 20.941-22.248-4.392 11.332-2.759 22.357 3.491 32.064-1.456-12.583 2.38-21.403 9.377-29.229-2.203 7.825-2.013 15.017 1.747 22.467-1.529-13.742 9.994-20.719 25.302-29.884 20.513-12.278 27.994-25.992 31.188-44.113-5.592 11.124-16.045 21.287-45.142 28.018-36.14 8.36-49.25 20.12-46.91 42.92z" fill="#2D9746"/>
				<radialGradient id="ac" cx="-69981" cy="-77857" r="216.21" gradientTransform="matrix(1 0 0 -1 70578 -78258)" gradientUnits="userSpaceOnUse">
				<stop stop-color="#59AB46" offset=".3479"/>
				<stop stop-color="#80C343" offset=".7607"/>
			</radialGradient>
			<path d="m655.24-389.58c47.698 6.52 74.912 33.688 79.637 59.226-6.358-14.989-21.039-24.667-38.239-30.189 17.2 22.705 11.656 51.634 34.213 67.563-16.794-17.887-11.684-39.636-24.149-59.512 19.861 11.174 22.884 27.011 27.584 43.986 7.104 25.674 18.706 32.552 27.903 35.936-18.956 0.729-46.439-7.341-59.598-32.571-13.954-26.75-2.348-55.752-36.426-70.925 15.558 13.052 23.861 31.624 14.085 55.773 3.655-35.521-33.422-41.327-39.387-65.547-1.02 18.683 11.633 34.387 23.573 41.973-16.672-5.464-31.134-14.565-37.948-35.362-11.219 34.663 8.611 62.311 20.904 62.311 4.256 0 7.348-2.709 7.348-6.747 0-10.45-18.862-10.45-23.65-30.552 8.624 17.537 41.397 14.377 41.397 33.639 0 15.779-22.099 22.744-36.223 12.938 10.348 13.514 34.444 13.965 41.4-2.301 1.072 6.979-2.12 17.43-12.076 21.272-11.32 4.374-21.849-4.024-21.849-4.024 12.38 17.845 33.929 5.951 55.198 6.326 17.608 0.313 29.337 9.431 34.498 18.112-4.807-2.407-7.516-3.056-12.361-3.161 10.197 6.283 17.577 20.733 14.662 34.786-2.101-10.125-13.891-17.303-36.223-18.851-25.208-1.745-38.578-5.783-47.151-15.072 18.15 8.031 46.885-3.092 66.412 9.774-12.078-13.835-38.781-9.867-57.871-12.933-33.552-5.385-53.996-62.037-51.376-86.902-9.165 37.952 15.331 58.657 20.721 79.613 5.89 22.902-5.454 38.605-16.122 46.67 16.66-24.95-12.017-39.909-7.475-71.872-8.469 31.092 7.187 39.96 7.187 56.06 0 15.813-13.909 21.054-16.674 41.397-2.763-20.344-16.674-25.585-16.674-41.397 0-16.1 15.655-24.968 7.187-56.06 4.544 31.963-24.131 46.922-7.475 71.872-10.666-8.064-22.008-23.768-16.118-46.67 5.386-20.956 29.881-41.661 20.719-79.613 2.618 24.865-17.824 81.518-51.376 86.902-19.092 3.065-45.793-0.902-57.871 12.933 19.524-12.866 48.26-1.743 66.41-9.774-8.57 9.289-21.941 13.327-47.148 15.072-22.336 1.548-34.124 8.726-36.224 18.851-2.915-14.053 4.463-28.503 14.662-34.786-4.847 0.105-7.552 0.754-12.361 3.161 5.162-8.682 16.888-17.799 34.5-18.112 21.27-0.375 42.815 11.519 55.199-6.326 0 0-10.532 8.398-21.849 4.024-9.96-3.843-13.149-14.293-12.077-21.272 6.956 16.266 31.049 15.814 41.397 2.301-14.124 9.807-36.223 2.842-36.223-12.938 0-19.262 32.777-16.102 41.401-33.639-4.789 20.102-23.65 20.102-23.65 30.552 0 4.038 3.092 6.747 7.349 6.747 12.289 0 32.121-27.647 20.9-62.311-6.811 20.797-21.274 29.898-37.948 35.362 11.943-7.586 24.593-23.29 23.574-41.973-5.965 24.22-43.04 30.026-39.388 65.547-9.773-24.149-1.472-42.721 14.089-55.773-34.081 15.173-22.476 44.175-36.429 70.925-13.159 25.23-40.641 33.301-59.597 32.571 9.195-3.384 20.799-10.262 27.903-35.936 4.697-16.976 7.722-32.813 27.585-43.986-12.467 19.876-7.355 41.625-24.15 59.512 22.558-15.93 17.01-44.858 34.21-67.563-17.2 5.522-31.883 15.2-38.236 30.189 4.722-25.538 31.938-52.707 79.637-59.226-49.138-2.088-58.613 25.203-83.375 26.188-15.688 0.624-29.386-13.596-45.423-22.162 19.627 4.978 50.404 18.355 66.699-3.45 0 0-10.036 8.524-29.611 6.04-19.886-2.525-38.017-15.231-87.687-18.401 49.67-3.173 67.8-15.874 87.687-18.4 19.575-2.488 29.611 6.036 29.611 6.036-16.295-21.805-47.071-8.425-66.699-3.45 16.037-8.566 29.735-22.783 45.423-22.16 24.763 0.983 34.237 28.277 83.375 26.186-47.698-6.517-74.915-33.689-79.637-59.223 6.354 14.986 21.036 24.664 38.236 30.187-17.2-22.706-11.652-51.634-34.21-67.561 16.795 17.884 11.683 39.637 24.15 59.51-19.864-11.171-22.889-27.009-27.585-43.985-7.104-25.677-18.708-32.55-27.903-35.938 18.956-0.729 46.438 7.342 59.597 32.57 13.953 26.755 2.348 55.758 36.429 70.926-15.561-13.053-23.862-31.624-14.089-55.773-3.652 35.522 33.422 41.327 39.388 65.548 1.019-18.683-11.63-34.388-23.574-41.974 16.674 5.465 31.138 14.566 37.948 35.363 11.221-34.66-8.611-62.311-20.9-62.311-4.257 0-7.349 2.711-7.349 6.747 0 10.453 18.862 10.453 23.65 30.551-8.624-17.534-41.401-14.371-41.401-33.635 0-15.779 22.099-22.745 36.223-12.939-10.349-13.511-34.442-13.967-41.397 2.301-1.073-6.98 2.117-17.43 12.077-21.274 11.317-4.373 21.849 4.024 21.849 4.024-12.383-17.845-33.929-5.947-55.199-6.326-17.612-0.31-29.338-9.431-34.5-18.11 4.809 2.406 7.515 3.053 12.361 3.162-10.198-6.286-17.577-20.738-14.662-34.787 2.101 10.124 13.888 17.302 36.224 18.848 25.207 1.746 38.578 5.783 47.148 15.077-18.149-8.036-46.885 3.091-66.41-9.775 12.078 13.833 38.779 9.867 57.871 12.931 33.552 5.383 53.994 62.035 51.376 86.9 9.162-37.953-15.333-58.656-20.719-79.613-5.89-22.901 5.452-38.606 16.118-46.668-16.656 24.95 12.019 39.907 7.475 71.875 8.468-31.095-7.187-39.962-7.187-56.062 0-15.813 13.911-21.056 16.674-41.399 2.766 20.343 16.674 25.586 16.674 41.399 0 16.1-15.656 24.966-7.187 56.062-4.542-31.968 24.135-46.924 7.475-71.875 10.668 8.063 22.012 23.768 16.122 46.668-5.39 20.957-29.886 41.661-20.721 79.613-2.62-24.865 17.824-81.517 51.376-86.9 19.09-3.064 45.793 0.901 57.871-12.931-19.527 12.867-48.262 1.739-66.412 9.775 8.573-9.294 21.943-13.332 47.151-15.077 22.332-1.546 34.122-8.724 36.223-18.848 2.915 14.049-4.465 28.501-14.662 34.787 4.846-0.109 7.555-0.756 12.361-3.162-5.161 8.679-16.89 17.8-34.498 18.11-21.27 0.378-42.818-11.52-55.198 6.326 0 0 10.528-8.397 21.849-4.024 9.956 3.845 13.148 14.294 12.076 21.274-6.956-16.269-31.053-15.813-41.4-2.301 14.124-9.806 36.223-2.84 36.223 12.939 0 19.264-32.773 16.101-41.397 33.635 4.788-20.098 23.65-20.098 23.65-30.551 0-4.036-3.092-6.747-7.348-6.747-12.293 0-32.123 27.65-20.904 62.311 6.814-20.797 21.276-29.898 37.948-35.363-11.94 7.586-24.593 23.291-23.573 41.974 5.965-24.221 43.042-30.025 39.387-65.548 9.776 24.15 1.473 42.72-14.085 55.773 34.078-15.168 22.472-44.171 36.426-70.926 13.158-25.229 40.642-33.299 59.598-32.57-9.197 3.388-20.799 10.261-27.903 35.938-4.7 16.976-7.723 32.813-27.584 43.985 12.466-19.873 7.355-41.625 24.149-59.51-22.557 15.927-17.013 44.855-34.213 67.561 17.2-5.523 31.881-15.201 38.239-30.187-4.725 25.534-31.938 52.706-79.637 59.223 49.139 2.092 58.61-25.202 83.371-26.186 15.689-0.623 29.387 13.593 45.426 22.16-19.628-4.975-50.403-18.355-66.7 3.45 0 0 10.036-8.524 29.613-6.036 19.884 2.526 38.015 15.227 87.685 18.4-49.67 3.17-67.801 15.876-87.685 18.401-19.577 2.484-29.613-6.04-29.613-6.04 16.297 21.805 47.072 8.427 66.7 3.45-16.039 8.566-29.736 22.786-45.426 22.162-24.77-0.94-34.24-28.23-83.38-26.15zm54.04-11.78c7.476 2.011 13.988 6.108 23.476 6.108 11.526 0 17.944-4.458 27.125-6.108-9.181-1.649-15.599-6.107-27.125-6.107-9.49 0-16 4.1-23.48 6.11zm-117.01-146.33c0 8.301 4.886 13.606 4.886 19.643 0-6.036 4.889-11.341 4.889-19.643 0-7.403-3.646-10.779-4.889-18.528-1.24 7.75-4.89 11.12-4.89 18.53zm-107.23 146.33c-7.475-2.014-13.99-6.107-23.476-6.107-11.526 0-17.942 4.458-27.123 6.107 9.181 1.65 15.597 6.108 27.123 6.108 9.49 0 16-4.1 23.48-6.11zm117.01 146.33c0-8.301-4.889-13.608-4.889-19.643 0 6.034-4.886 11.342-4.886 19.643 0 7.402 3.643 10.781 4.886 18.527 1.24-7.75 4.89-11.12 4.89-18.53zm68.14-146.33c-16.102 0-39.03-8.072-56.635-4.887 5.589-3.401 8.073-5.951 12.073-10.927-7.139 0.703-10.95 1.29-16.388 3.739 4.314-9.75 5.175-15.23 6.036-25.012-4.972 5.777-7.516 9.301-10.637 17.249 1.148-20.125-6.899-24.706-7.475-51.463-0.576 26.757-8.624 31.338-7.475 51.463-3.117-7.948-5.662-11.472-10.637-17.249 0.861 9.782 1.724 15.262 6.039 25.012-5.438-2.45-9.251-3.037-16.39-3.739 4.003 4.976 6.488 7.526 12.076 10.927-17.604-3.186-40.536 4.887-56.635 4.887 16.099 0 39.03 8.071 56.635 4.888-5.588 3.397-8.072 5.947-12.076 10.923 7.139-0.699 10.953-1.29 16.39-3.735-4.314 9.747-5.177 15.226-6.039 25.013 4.975-5.779 7.52-9.306 10.637-17.253-1.148 20.125 6.899 24.706 7.475 51.463 0.576-26.758 8.623-31.338 7.475-51.463 3.121 7.948 5.665 11.474 10.637 17.253-0.861-9.787-1.722-15.266-6.036-25.013 5.438 2.446 9.249 3.037 16.388 3.735-4-4.976-6.484-7.526-12.073-10.923 17.6 3.17 40.52-4.9 56.63-4.9z" fill="url(#ac)"/>
			<path d="m707.02-290.38c-8.943-7.416-17.273-20.188-18.539-36.863-1.744 16.578-5.184 29.388-13.305 38.827 0 0 10.251-5.018 13.96-14.834 4.8 8.5 17.88 12.86 17.88 12.86z" fill="#2D9746"/>
			<path d="m729.7-207.93c-1.972-9.673-10.219-18.11-20.938-22.248 4.39 11.332 2.761 22.357-3.491 32.064 1.457-12.583-2.379-21.403-9.379-29.229 2.206 7.825 2.013 15.017-1.744 22.467 1.525-13.742-9.994-20.719-25.301-29.884-20.515-12.278-27.996-25.992-31.192-44.113 5.592 11.124 16.045 21.287 45.142 28.018 36.13 8.36 49.25 20.12 46.9 42.92z" fill="#2D9746"/>
				<linearGradient id="ad" x1="86278" x2="86240" y1="61435" y2="61448" gradientTransform="matrix(-1 0 0 1 87002 -61787)" gradientUnits="userSpaceOnUse">
				<stop stop-color="#FAA71C" offset=".2331"/>
				<stop stop-color="#FFC316" offset=".7607"/>
			</linearGradient>
			<path d="m729.27-357.34c7.596 7.447 11.2 19.747 11.779 35.195 0.764 20.299 8.767 28.611 21.594 30.022-19.122-7.42-7.2-27.731-12.868-41.878 10.434 7.756 7.099 33.504 28.573 34.679-15.848-5.178-4.594-27.018-15.05-39.696 12.651 0.175 18.469-9.923 34.899-5.235-7.643-5.888-16.146-9.597-30.536-9.597 10.133-6.254 14.583-13.977 18.32-24.865-16.4 17.17-40.26 23.77-56.7 21.38z" fill="url(#ad)"/>
				<linearGradient id="ae" x1="-70108" x2="-70146" y1="61435" y2="61448" gradientTransform="translate(70578 -61787)" gradientUnits="userSpaceOnUse">
				<stop stop-color="#FAA71C" offset=".2331"/>
				<stop stop-color="#FFC316" offset=".7607"/>
			</linearGradient>
			<path d="m465.05-357.34c-7.596 7.447-11.197 19.747-11.779 35.195-0.763 20.299-8.765 28.611-21.593 30.022 19.123-7.42 7.202-27.731 12.87-41.878-10.437 7.756-7.1 33.504-28.574 34.679 15.847-5.178 4.593-27.018 15.05-39.696-12.651 0.175-18.466-9.923-34.899-5.235 7.64-5.888 16.146-9.597 30.537-9.597-10.133-6.254-14.581-13.977-18.322-24.865 16.4 17.17 40.26 23.77 56.7 21.38z" fill="url(#ae)"/>
				<linearGradient id="af" x1="86452" x2="86452" y1="-77717" y2="-77672" gradientTransform="matrix(-1 0 0 -1 87002 -78258)" gradientUnits="userSpaceOnUse">
				<stop stop-color="#FAA71C" offset=".2331"/>
				<stop stop-color="#FFC316" offset=".7607"/>
			</linearGradient>
			<path d="m508.24-597.85c4.278 22.41 41.1 26.341 49.075 55.184 6.108-30.973 34.505-32.2 34.9-53.657-5.152 12.642-17.561 9.375-25.739 19.63 1.37-9.967 7.511-19.269 20.067-24.43-12.434-1.744-25.321 2.969-30.973 15.487-4.146-6.761-4.557-13.69-1.092-22.466-7.633 5.889-12.14 15.069-9.162 26.829-11.79-11.77-29.02-5.23-37.09-16.57z" fill="url(#af)"/>
			<path d="m626.68-401.36c-6.898-1.076-15.213-5.187-22.896-1.976 3.763-2.925 1.855-5.695 4.099-8.422-3.105 2.249-5.687 0.815-8.08 4.449 2.488-8.604-0.858-13.194-2.646-22.877-1.788 9.683-5.133 14.273-2.646 22.877-2.389-3.634-4.972-2.2-8.076-4.449 2.244 2.728 0.332 5.497 4.098 8.422-7.684-3.211-16 0.9-22.896 1.976 6.896 1.078 15.213 5.184 22.896 1.974-3.766 2.924-1.854 5.698-4.098 8.421 3.104-2.246 5.687-0.81 8.076-4.444-2.488 8.602 0.858 13.188 2.646 22.875 1.788-9.686 5.133-14.272 2.646-22.875 2.393 3.634 4.975 2.198 8.08 4.444-2.244-2.723-0.336-5.497-4.099-8.421 7.69 3.22 16-0.88 22.9-1.96z" fill="#FFC316"/>
				<linearGradient id="ag" x1="-70230" x2="-70230" y1="61302" y2="61348" gradientTransform="translate(70514 -61773)" gradientUnits="userSpaceOnUse">
				<stop stop-color="#FAA71C" offset=".2331"/>
				<stop stop-color="#FFC316" offset=".7607"/>
			</linearGradient>
			<path d="m326.39-413.61c-4.282-22.41-41.104-26.343-49.079-55.186-6.105 30.973-34.505 32.199-34.897 53.658 5.149-12.642 17.559-9.375 25.739-19.63-1.373 9.968-7.509 19.268-20.067 24.428 12.431 1.746 25.319-2.969 30.974-15.486 4.143 6.763 4.556 13.69 1.088 22.466 7.637-5.89 12.141-15.067 9.162-26.827 11.79 11.78 29.02 5.23 37.09 16.58z" fill="url(#ag)"/>
				<radialGradient id="ai" cx="-70341" cy="-77648" r="216.21" gradientTransform="matrix(1 0 0 -1 70578 -78258)" gradientUnits="userSpaceOnUse">
				<stop stop-color="#59AB46" offset=".3479"/>
				<stop stop-color="#80C343" offset=".7607"/>
			</radialGradient>
			<path d="m295.55-598.32c47.698 6.52 74.912 33.688 79.637 59.226-6.358-14.989-21.039-24.667-38.239-30.189 17.2 22.705 11.656 51.634 34.213 67.563-16.794-17.887-11.684-39.636-24.149-59.512 19.861 11.174 22.884 27.011 27.584 43.986 7.104 25.674 18.706 32.552 27.903 35.936-18.956 0.729-46.439-7.341-59.598-32.571-13.954-26.75-2.348-55.752-36.426-70.925 15.558 13.052 23.861 31.624 14.085 55.773 3.655-35.521-33.422-41.327-39.387-65.547-1.02 18.683 11.633 34.387 23.573 41.973-16.672-5.464-31.134-14.565-37.948-35.362-11.219 34.663 8.611 62.311 20.904 62.311 4.256 0 7.348-2.709 7.348-6.747 0-10.45-18.862-10.45-23.65-30.552 8.624 17.537 41.397 14.377 41.397 33.639 0 15.779-22.099 22.744-36.223 12.938 10.348 13.514 34.444 13.965 41.4-2.301 1.072 6.979-2.12 17.43-12.076 21.272-11.32 4.374-21.849-4.024-21.849-4.024 12.38 17.845 33.929 5.951 55.198 6.326 17.608 0.313 29.337 9.431 34.498 18.112-4.807-2.407-7.516-3.056-12.361-3.161 10.197 6.283 17.577 20.733 14.662 34.786-2.101-10.125-13.891-17.303-36.223-18.851-25.208-1.745-38.578-5.783-47.151-15.072 18.15 8.031 46.885-3.092 66.412 9.774-12.078-13.835-38.781-9.867-57.871-12.933-33.552-5.385-53.996-62.037-51.376-86.902-9.165 37.952 15.331 58.657 20.721 79.613 5.89 22.902-5.454 38.605-16.122 46.67 16.66-24.95-12.017-39.909-7.475-71.872-8.469 31.092 7.187 39.96 7.187 56.06 0 15.813-13.909 21.054-16.674 41.397-2.763-20.344-16.674-25.585-16.674-41.397 0-16.1 15.655-24.968 7.187-56.06 4.544 31.963-24.131 46.922-7.475 71.872-10.666-8.064-22.008-23.768-16.118-46.67 5.386-20.956 29.881-41.661 20.719-79.613 2.618 24.865-17.824 81.518-51.376 86.902-19.092 3.065-45.793-0.902-57.871 12.933 19.524-12.866 48.26-1.743 66.41-9.774-8.57 9.289-21.941 13.327-47.148 15.072-22.336 1.548-34.124 8.726-36.224 18.851-2.915-14.053 4.463-28.503 14.662-34.786-4.847 0.105-7.552 0.754-12.361 3.161 5.162-8.682 16.888-17.799 34.5-18.112 21.27-0.375 42.815 11.519 55.199-6.326 0 0-10.532 8.398-21.849 4.024-9.96-3.843-13.149-14.293-12.077-21.272 6.956 16.266 31.049 15.814 41.397 2.301-14.124 9.807-36.223 2.842-36.223-12.938 0-19.262 32.777-16.102 41.401-33.639-4.789 20.102-23.65 20.102-23.65 30.552 0 4.038 3.092 6.747 7.349 6.747 12.289 0 32.121-27.647 20.9-62.311-6.811 20.797-21.274 29.898-37.948 35.362 11.943-7.586 24.593-23.29 23.574-41.973-5.965 24.22-43.04 30.026-39.388 65.547-9.773-24.149-1.472-42.721 14.089-55.773-34.081 15.173-22.476 44.175-36.429 70.925-13.159 25.23-40.641 33.301-59.597 32.571 9.195-3.384 20.799-10.262 27.903-35.936 4.697-16.976 7.722-32.813 27.585-43.986-12.467 19.876-7.355 41.625-24.15 59.512 22.558-15.93 17.01-44.858 34.21-67.563-17.2 5.522-31.883 15.2-38.236 30.189 4.722-25.538 31.938-52.707 79.637-59.226-49.138-2.088-58.613 25.203-83.375 26.188-15.688 0.624-29.386-13.596-45.423-22.162 19.627 4.978 50.404 18.355 66.699-3.45 0 0-10.036 8.524-29.611 6.04-19.869-2.51-37.999-15.22-87.669-18.39 49.67-3.173 67.8-15.874 87.687-18.4 19.575-2.488 29.611 6.036 29.611 6.036-16.295-21.805-47.071-8.425-66.699-3.45 16.037-8.566 29.735-22.783 45.423-22.16 24.763 0.983 34.237 28.277 83.375 26.186-47.698-6.517-74.915-33.689-79.637-59.223 6.354 14.986 21.036 24.664 38.236 30.187-17.2-22.706-11.652-51.634-34.21-67.561 16.795 17.884 11.683 39.637 24.15 59.51-19.864-11.171-22.889-27.009-27.585-43.985-7.104-25.677-18.708-32.55-27.903-35.938 18.956-0.729 46.438 7.342 59.597 32.57 13.953 26.755 2.348 55.758 36.429 70.926-15.561-13.053-23.862-31.624-14.089-55.773-3.652 35.522 33.422 41.327 39.388 65.548 1.019-18.683-11.63-34.388-23.574-41.974 16.674 5.465 31.138 14.566 37.948 35.363 11.221-34.66-8.611-62.311-20.9-62.311-4.257 0-7.349 2.711-7.349 6.747 0 10.453 18.862 10.453 23.65 30.551-8.624-17.534-41.401-14.371-41.401-33.635 0-15.779 22.099-22.745 36.223-12.939-10.349-13.511-34.442-13.967-41.397 2.301-1.073-6.98 2.117-17.43 12.077-21.274 11.317-4.373 21.849 4.024 21.849 4.024-12.383-17.845-33.929-5.947-55.199-6.326-17.612-0.31-29.338-9.431-34.5-18.11 4.809 2.406 7.515 3.053 12.361 3.162-10.198-6.286-17.577-20.738-14.662-34.787 2.101 10.124 13.888 17.302 36.224 18.848 25.207 1.746 38.578 5.783 47.148 15.077-18.149-8.036-46.885 3.091-66.41-9.775 12.078 13.833 38.779 9.867 57.871 12.931 33.552 5.383 53.994 62.035 51.376 86.9 9.162-37.953-15.333-58.656-20.719-79.613-5.89-22.901 5.452-38.606 16.118-46.668-16.656 24.95 12.019 39.907 7.475 71.875 8.468-31.095-7.187-39.962-7.187-56.062 0-15.813 13.911-21.056 16.674-41.399 2.766 20.343 16.674 25.586 16.674 41.399 0 16.1-15.656 24.966-7.187 56.062-4.542-31.968 24.135-46.924 7.475-71.875 10.668 8.063 22.012 23.768 16.122 46.668-5.39 20.957-29.886 41.661-20.721 79.613-2.62-24.865 17.824-81.517 51.376-86.9 19.09-3.064 45.793 0.901 57.871-12.931-19.527 12.867-48.262 1.739-66.412 9.775 8.573-9.294 21.943-13.332 47.151-15.077 22.332-1.546 34.122-8.724 36.223-18.848 2.915 14.049-4.465 28.501-14.662 34.787 4.846-0.109 7.555-0.756 12.361-3.162-5.161 8.679-16.89 17.8-34.498 18.11-21.27 0.378-42.818-11.52-55.198 6.326 0 0 10.528-8.397 21.849-4.024 9.956 3.845 13.148 14.294 12.076 21.274-6.956-16.269-31.053-15.813-41.4-2.301 14.124-9.806 36.223-2.84 36.223 12.939 0 19.264-32.773 16.101-41.397 33.635 4.788-20.098 23.65-20.098 23.65-30.551 0-4.036-3.092-6.747-7.348-6.747-12.293 0-32.123 27.65-20.904 62.311 6.814-20.797 21.276-29.898 37.948-35.363-11.94 7.586-24.593 23.291-23.573 41.974 5.965-24.221 43.042-30.025 39.387-65.548 9.776 24.15 1.473 42.72-14.085 55.773 34.078-15.168 22.472-44.171 36.426-70.926 13.158-25.229 40.642-33.299 59.598-32.57-9.197 3.388-20.799 10.261-27.903 35.938-4.7 16.976-7.723 32.813-27.584 43.985 12.466-19.873 7.355-41.625 24.149-59.51-22.557 15.927-17.013 44.855-34.213 67.561 17.2-5.523 31.881-15.201 38.239-30.187-4.725 25.534-31.938 52.706-79.637 59.223 49.139 2.092 58.61-25.202 83.371-26.186 15.689-0.623 29.387 13.593 45.426 22.16-19.628-4.975-50.403-18.355-66.7 3.45 0 0 10.036-8.524 29.613-6.036 19.884 2.526 38.015 15.227 87.685 18.4-49.67 3.17-67.801 15.876-87.685 18.401-19.577 2.484-29.613-6.04-29.613-6.04 16.297 21.805 47.072 8.427 66.7 3.45-16.039 8.566-29.736 22.786-45.426 22.162-24.78-0.96-34.26-28.25-83.39-26.17zm54.04-11.78c7.476 2.011 13.988 6.108 23.476 6.108 11.526 0 17.944-4.458 27.125-6.108-9.181-1.649-15.599-6.107-27.125-6.107-9.5 0-16.01 4.09-23.49 6.11zm-117.01-146.34c0 8.301 4.886 13.606 4.886 19.643 0-6.036 4.889-11.341 4.889-19.643 0-7.403-3.646-10.779-4.889-18.528-1.24 7.76-4.89 11.13-4.89 18.53zm-107.23 146.34c-7.475-2.014-13.99-6.107-23.476-6.107-11.526 0-17.942 4.458-27.123 6.107 9.181 1.65 15.597 6.108 27.123 6.108 9.49 0 16-4.1 23.48-6.11zm117.01 146.33c0-8.301-4.889-13.608-4.889-19.643 0 6.034-4.886 11.342-4.886 19.643 0 7.402 3.643 10.781 4.886 18.527 1.24-7.75 4.89-11.13 4.89-18.53zm68.14-146.33c-16.102 0-39.03-8.072-56.635-4.887 5.589-3.401 8.073-5.951 12.073-10.927-7.139 0.703-10.95 1.29-16.388 3.739 4.314-9.75 5.175-15.23 6.036-25.012-4.972 5.777-7.516 9.301-10.637 17.249 1.148-20.125-6.899-24.706-7.475-51.463-0.576 26.757-8.624 31.338-7.475 51.463-3.117-7.948-5.662-11.472-10.637-17.249 0.861 9.782 1.724 15.262 6.039 25.012-5.438-2.45-9.251-3.037-16.39-3.739 4.003 4.976 6.488 7.526 12.076 10.927-17.604-3.186-40.536 4.887-56.635 4.887 16.099 0 39.03 8.071 56.635 4.888-5.588 3.397-8.072 5.947-12.076 10.923 7.139-0.699 10.953-1.29 16.39-3.735-4.314 9.747-5.177 15.226-6.039 25.013 4.975-5.779 7.52-9.306 10.637-17.253-1.148 20.125 6.899 24.706 7.475 51.463 0.576-26.758 8.623-31.338 7.475-51.463 3.121 7.948 5.665 11.474 10.637 17.253-0.861-9.787-1.722-15.266-6.036-25.013 5.438 2.446 9.249 3.037 16.388 3.735-4-4.976-6.484-7.526-12.073-10.923 17.6 3.17 40.53-4.9 56.64-4.9z" fill="url(#ai)"/>
			<path d="m347.33-499.12c-8.943-7.416-17.273-20.188-18.539-36.863-1.744 16.578-5.184 29.388-13.305 38.827 0 0 10.251-5.018 13.96-14.834 4.8 8.5 17.89 12.86 17.89 12.86z" fill="#2D9746"/>
			<path d="m370.02-416.67c-1.972-9.673-10.219-18.11-20.938-22.248 4.39 11.332 2.761 22.357-3.491 32.064 1.457-12.583-2.379-21.403-9.379-29.229 2.206 7.825 2.013 15.017-1.744 22.467 1.525-13.742-9.994-20.719-25.301-29.884-20.515-12.278-27.996-25.992-31.192-44.113 5.592 11.124 16.045 21.287 45.142 28.018 36.12 8.36 49.24 20.12 46.9 42.92z" fill="#2D9746"/>
				<linearGradient id="aj" x1="86638" x2="86600" y1="61226" y2="61239" gradientTransform="matrix(-1 0 0 1 87002 -61787)" gradientUnits="userSpaceOnUse">
				<stop stop-color="#FAA71C" offset=".2331"/>
				<stop stop-color="#FFC316" offset=".7607"/>
			</linearGradient>
			<path d="m369.58-566.08c7.596 7.447 11.2 19.747 11.779 35.195 0.764 20.299 8.767 28.611 21.594 30.022-19.122-7.42-7.2-27.731-12.868-41.878 10.434 7.756 7.099 33.504 28.573 34.679-15.848-5.178-4.594-27.018-15.05-39.696 12.651 0.175 18.469-9.923 34.899-5.235-7.643-5.888-16.146-9.597-30.536-9.597 10.133-6.254 14.583-13.977 18.32-24.865-16.4 17.17-40.26 23.77-56.7 21.38z" fill="url(#aj)"/>
			<path d="m266.99-610.1c-6.898-1.076-15.213-5.187-22.896-1.976 3.763-2.925 1.855-5.695 4.099-8.422-3.105 2.249-5.687 0.815-8.08 4.449 2.488-8.604-0.858-13.194-2.646-22.877-1.788 9.683-5.133 14.273-2.646 22.877-2.389-3.634-4.972-2.2-8.076-4.449 2.244 2.728 0.332 5.497 4.098 8.422-7.684-3.211-16 0.9-22.896 1.976 6.896 1.078 15.213 5.184 22.896 1.974-3.766 2.924-1.854 5.698-4.098 8.421 3.104-2.246 5.687-0.81 8.076-4.444-2.488 8.602 0.858 13.188 2.646 22.875 1.788-9.686 5.133-14.272 2.646-22.875 2.393 3.634 4.975 2.198 8.08 4.444-2.244-2.723-0.336-5.497-4.099-8.421 7.69 3.22 16.01-0.88 22.9-1.96z" fill="#FFC316"/>
</pattern>
<g clip-rule="evenodd" fill-rule="evenodd">
	<path d="m380.96 35.614c32.997 8.049 77.413 14.821 118.24 30.742 17.691 6.895 32.088 30.888 40.6 50.342 9.21 21.039 12.635 45.786 13.097 69.018 0.262 13.613-6.895 35.059-16.645 39.292-12.958 5.618-36.375 3.547-47.04-5.24-26.056-21.478-46.848-49.241-70.742-73.504-24.309-24.686-55.182-41.9-88.348-28.856-19.869 7.811-39.353 29.349-48.063 49.457-10.435 24.101 5.417 46.948 30.011 56.305 36.567 13.913 74.181 25.202 111.74 36.291 97.875 28.911 149.29 89.018 150.26 176.96 1.085 98.806-52.866 174.19-146.72 204.28-82.415 26.426-163.58 18.469-241.87-14.528-14.867-6.264-29.18-26.51-33.32-42.931-8.896-35.382-12.989-72.365-14.729-108.9-0.523-11.22 10.874-29.942 20.608-32.958 12.466-3.855 34.397-0.231 42.354 8.842 22.316 25.433 38.707 55.951 59.022 83.285 23.839 32.088 54.881 51.842 96.851 50.918 32.489-0.715 56.621-14.059 65.301-45.909 9.173-33.682 1.447-63.031-33.412-78.729-21.462-9.673-43.632-17.822-65.717-26.056-20.854-7.78-42.569-13.498-62.938-22.332-96.12-41.7-129.38-97.136-119.24-196.68 8.095-79.421 75.089-150.89 159.15-168.28 22.96-4.757 46.58-6.311 81.55-10.836zm171.14 377.7c2.879-22.531-13.897-53.451-42.831-82.5-43.685-43.855-101.24-61.061-156.12-66.556-49.356-4.94-67.248-42.908-101.83-61.369-2.355-1.254-4.209-8.072-2.963-10.735 15.952-34.005 16.352-78.552 61.515-93.134 43.439-14.021 83.169-7.472 116.26 24.771 24.316 23.686 46.855 49.195 69.841 74.205 12.097 13.159 25.979 23.032 36.221 1.2 13.213-28.156-20.63-107.32-50.111-116.54-60.037-18.769-121.64-28.88-184.13-13.359-51.819 12.866-92.042 43.432-119.38 89.233-27.495 46.048-22.208 98.991-9.396 144.45 16.468 58.444 73.042 80.86 128.09 98.736 35.174 11.427 70.834 23.008 103.59 39.776 39.161 20.038 54.136 58.552 43.793 95.828-11.597 41.846-41.885 65.485-85.555 67.979-47.11 2.693-83.8-16.76-111.69-53.058-19.907-25.902-36.875-54.066-56.844-79.922-5.163-6.695-16.66-8.503-25.248-12.551-2.278 8.103-5.771 16.09-6.61 24.34-3.701 36.244 31.689 66.901 15.69 106.05-1.216 2.97 15.352 16.829 25.44 20.069 23.393 7.51 48.479 9.834 71.826 17.445 67.348 21.954 130.29 1.547 188.96-25.463 69.89-32.17 85.9-99.6 91.47-188.89z" fill="#94C74D"/>
	<path d="m552.1 413.31c-5.57 89.294-21.577 156.72-91.479 188.9-58.676 27.01-121.61 47.417-188.96 25.463-23.347-7.61-48.433-9.935-71.826-17.445-10.088-3.24-26.656-17.099-25.44-20.069 15.999-39.146-19.392-69.803-15.69-106.05 0.839-8.25 4.333-16.237 6.61-24.34 8.588 4.047 20.084 5.856 25.248 12.551 19.969 25.855 36.937 54.02 56.844 79.922 27.887 36.298 64.578 55.751 111.69 53.058 43.67-2.494 73.958-26.133 85.555-67.979 10.342-37.275-4.633-75.79-43.793-95.828-32.758-16.768-68.417-28.349-103.59-39.776-55.043-17.876-111.62-40.292-128.09-98.736-12.813-45.463-18.099-98.406 9.396-144.45 27.341-45.801 67.563-76.367 119.38-89.233 62.492-15.521 124.09-5.41 184.13 13.359 29.48 9.211 63.324 88.379 50.111 116.54-10.242 21.832-24.124 11.958-36.221-1.2-22.986-25.009-45.525-50.519-69.841-74.205-33.089-32.243-72.819-38.791-116.26-24.771-45.163 14.583-45.563 59.129-61.515 93.134-1.247 2.663 0.608 9.48 2.963 10.735 34.582 18.46 52.473 56.429 101.83 61.369 54.882 5.495 112.43 22.701 156.12 66.556 28.93 29.05 45.71 59.97 42.83 82.5z" fill="url(#w)"/>
</g>
</svg>
