<?xml version="1.0" encoding="UTF-8"?>
<svg width="1920" height="1860.3" version="1.1" viewBox="0 0 1920 1860.3065" xmlns="http://www.w3.org/2000/svg">
 <g transform="translate(-228.39 1176.1)" fill="#f00" shape-rendering="auto">
  <path d="m764.03 163.33c-10.964 4.8009-20.417 9.8845-28.091 14.101-85.172 46.794-97.575 161.02-68.223 227.63 29.352 66.606 92.514 146.24 268.03 172.87 175.52 26.628 183.78 61.62 215.82 106.31-11.366-53.805-31.613-83.516 67.166-231.02 98.78-147.51 82.626-247.86 53.273-314.46-29.352-66.606-122.03-134.53-214.03-103.24-37.899 12.887-114.25 40.959-130.74 139.66-65.605-42.526-124.05-28.995-163.21-11.849z" color="#000000" color-rendering="auto" image-rendering="auto" solid-color="#000000" style="isolation:auto;mix-blend-mode:normal"/>
  <path d="m1653.5-492.4c-14.503-6.7063-27.95-11.652-38.956-15.588-122.15-43.686-247.27 45.033-287.85 133.32-40.575 88.288-64.24 221.89 64.517 420.85 128.76 198.96 101.11 238.19 84.81 309.77 43.704-58.984 55.47-105.52 290.3-137.38 234.83-31.864 320.81-136.83 361.38-225.12 40.574-88.289 26.412-241.02-86.292-305.26-46.424-26.463-142.06-77.911-255.29-7.0155-15.578-103.2-80.831-149.62-132.63-173.57z" color="#000000" color-rendering="auto" image-rendering="auto" solid-color="#000000" style="isolation:auto;mix-blend-mode:normal"/>
  <path d="m402.84-927.5c-18.015 8.7188-33.485 17.814-46.04 25.347-139.33 83.602-152.8 275.25-99.52 384.68 53.277 109.42 163.87 238.47 458.83 271.8 294.96 33.333 310.99 91.274 367.37 163.91-22.411-89.178-58.131-137.53 97.539-390.28 155.67-252.74 122.3-419.39 69.02-528.81-53.278-109.42-212.44-217.02-364.18-158.9-62.504 23.941-188.3 75.701-209.57 241.67-112.32-66.884-209.11-40.56-273.45-9.4216z" color="#000000" color-rendering="auto" image-rendering="auto" solid-color="#000000" style="isolation:auto;mix-blend-mode:normal"/>
 </g>
</svg>
