<?xml version="1.0" encoding="UTF-8" standalone="no"?>
<!-- Created with Inkscape (http://www.inkscape.org/) -->

<svg
   width="210mm"
   height="297mm"
   viewBox="0 0 210 297"
   version="1.1"
   id="svg5"
   inkscape:export-filename="/home/sachchidanand/Documents/web-design/wedding-website/img/logo-1.png"
   inkscape:export-xdpi="96"
   inkscape:export-ydpi="96"
   inkscape:version="1.1 (ce6663b3b7, 2021-05-25)"
   sodipodi:docname="logo-1.svg"
   xmlns:inkscape="http://www.inkscape.org/namespaces/inkscape"
   xmlns:sodipodi="http://sodipodi.sourceforge.net/DTD/sodipodi-0.dtd"
   xmlns="http://www.w3.org/2000/svg"
   xmlns:svg="http://www.w3.org/2000/svg">
  <sodipodi:namedview
     id="namedview7"
     pagecolor="#ffffff"
     bordercolor="#666666"
     borderopacity="1.0"
     inkscape:pageshadow="2"
     inkscape:pageopacity="0.0"
     inkscape:pagecheckerboard="0"
     inkscape:document-units="mm"
     showgrid="false"
     inkscape:object-nodes="false"
     inkscape:zoom="0.29576319"
     inkscape:cx="593.38013"
     inkscape:cy="454.75572"
     inkscape:window-width="1600"
     inkscape:window-height="836"
     inkscape:window-x="0"
     inkscape:window-y="27"
     inkscape:window-maximized="1"
     inkscape:current-layer="layer1" />
  <defs
     id="defs2" />
  <g
     inkscape:label="Layer 1"
     inkscape:groupmode="layer"
     id="layer1">
    <path
       id="path7260"
       style="fill:#ff0024;fill-opacity:1;stroke-width:8.71458"
       d="m 148.60654,54.69364 c -13.41394,0 -26.82786,5.010899 -37.03702,15.032675 l -6.53552,6.971668 -6.53603,-6.971668 c -10.213438,-10.457489 -23.655692,-14.8146 -37.037017,-14.8146 -13.381318,0 -26.826869,4.357111 -37.037015,14.8146 -20.4193072,20.915014 -19.8587192,53.159035 0,74.074025 L 105.034,229.2034 185.64355,143.80034 c 19.86068,-20.91499 20.41832,-53.159011 0,-74.074025 C 175.43439,59.704539 162.02046,54.69364 148.60654,54.69364 Z m -31.86266,14.832687 c 0.88122,0 1.94656,0.294741 3.19619,0.884185 1.99939,0.94311 3.6597,2.150229 4.98006,3.621484 1.32036,1.471253 1.48984,2.716096 0.50901,3.734655 -2.22575,1.961676 -4.69682,4.942263 -7.41298,8.941056 -2.71616,3.998794 -5.24357,8.299159 -7.58249,12.901539 -2.33891,4.602374 -4.03642,8.752364 -5.09271,12.449364 -1.05628,3.69699 -0.99995,6.20528 0.1695,7.52564 -0.98083,0.86766 -2.30113,0.99994 -3.961,0.39636 -1.622153,-0.6036 -3.055604,-1.71666 -4.300511,-3.33882 -1.244904,-1.62214 -1.791623,-3.56459 -1.640726,-5.82806 0.528142,-3.28203 1.508926,-6.88478 2.942457,-10.80813 1.131729,-3.131122 2.03707,-6.168044 2.71611,-9.110552 0.67904,-2.980232 0.65993,-5.583084 -0.0568,-7.808825 -0.67904,-1.395807 -2.527441,-1.358074 -5.545397,0.113173 -2.980232,1.433531 -6.337533,3.715483 -10.072254,6.84661 -3.73472,3.093413 -7.054815,6.451224 -9.959599,10.072764 -2.904783,3.58383 -4.602295,6.82796 -5.09271,9.73274 -0.1509,2.22575 0.943054,4.07415 3.281968,5.5454 2.376644,1.43353 5.357236,2.84838 8.941057,4.24419 3.395202,1.28263 6.733381,2.81013 10.01541,4.58318 3.275552,1.74945 5.961211,3.99703 8.061525,6.73809 3.84763,-2.51587 7.76224,-4.86443 11.76465,-6.99337 4.40441,-2.34278 7.87175,-3.983 10.40195,-4.92012 5.48209,-8.52769 11.85406,-16.91469 19.11666,-25.161249 7.26259,-8.29342 14.24413,-14.736183 20.94446,-19.328019 2.85818,-1.780508 5.88046,-2.366121 9.06663,-1.757 3.18617,0.609122 5.7868,1.944833 7.80159,4.006475 2.01479,2.014789 2.74094,4.310388 2.17868,6.887435 -0.70284,2.483339 -1.63981,5.365064 -2.8112,8.64495 -1.17139,3.233026 -2.29628,6.161604 -3.37396,8.785508 -5.01353,12.32299 -10.09716,25.51252 -15.25126,39.56916 -5.1541,14.00979 -9.18363,26.80162 -12.08867,38.37492 -0.70283,2.15535 -2.31912,3.37342 -4.84931,3.65456 -2.5302,0.32798 -4.89659,-0.0468 -7.09879,-1.12448 -2.20222,-1.03083 -3.11577,-2.52999 -2.74092,-4.49792 4.91982,-16.77426 11.05755,-33.75959 18.41386,-50.95555 -0.37485,-1.03082 -2.06141,-1.47588 -5.06016,-1.33531 -2.95189,0.0937 -6.16156,0.63247 -9.62887,1.61643 -3.42044,0.98397 -6.06793,2.24889 -7.94215,3.79512 -1.03082,1.49938 -2.67053,4.40453 -4.91959,8.71523 -2.24906,4.3107 -4.49834,9.27772 -6.74739,14.90038 -2.24907,5.5758 -3.91221,11.05765 -4.98988,16.44603 -1.07767,5.34152 -0.98397,9.83954 0.28112,13.49426 0.4217,1.07768 0.35143,1.85069 -0.21084,2.31924 -0.51541,0.46856 -1.19472,0.67937 -2.03812,0.63252 -0.79655,-0.0469 -1.45295,-0.28111 -1.96835,-0.7028 -2.20222,-1.7805 -4.02932,-4.59144 -5.48184,-8.43359 -1.45251,-3.84215 -1.75703,-8.99657 -0.91364,-15.46262 0.89025,-6.51292 3.77198,-14.59539 8.64495,-24.24762 -0.14057,0.0469 -0.86724,0.60905 -2.1792,1.68672 -1.31195,1.03082 -2.83454,2.36653 -4.56819,4.00647 -0.5534,0.52266 -1.05481,1.06471 -1.56786,1.60249 -0.93164,2.40068 -2.59098,4.90269 -4.981608,7.506 -0.04646,0.22112 -0.106839,0.44547 -0.12764,0.66043 -0.223674,0.11184 -0.453711,0.14333 -0.682128,0.19585 -0.199067,0.20496 -0.398206,0.40979 -0.606166,0.61598 -4.41376,4.41376 -9.846315,8.28058 -16.297195,11.60033 -6.450883,3.31974 -12.882822,5.24359 -19.29598,5.77174 -5.243701,0.26407 -9.07279,-0.41494 -11.487155,-2.03708 -2.829333,-1.92396 -4.225066,-4.63997 -4.187341,-8.14835 0.07545,-3.54609 1.037113,-7.31886 2.885612,-11.31765 3.168853,-6.56406 6.97934,-11.99609 11.430828,-16.29668 0.528142,-0.41497 1.093978,-0.52814 1.697569,-0.33951 0.641316,0.18862 1.112589,0.52813 1.414386,1.01854 0.301797,0.45269 0.24547,0.88624 -0.1695,1.30121 -1.999396,1.62215 -3.829193,3.90462 -5.48907,6.84713 -1.622152,2.9425 -2.678382,5.90398 -3.168801,8.88421 -0.490413,2.94251 0.0191,5.24358 1.528075,6.90346 1.546701,1.65988 4.526777,2.01849 8.940538,1.07538 4.036518,-0.98083 8.110543,-2.69746 12.222509,-5.14955 4.14969,-2.48982 7.639277,-5.24356 10.468612,-8.26152 0.927529,-0.98936 1.706364,-1.96221 2.341976,-2.9192 0.0063,-1.40379 0.356086,-2.70363 1.144116,-3.87108 0.241747,-0.29009 0.556181,-0.59636 0.836126,-0.89503 0.04653,-0.30717 0.07882,-0.61283 0.09147,-0.91623 -0.188621,-3.31975 -1.848411,-5.9226 -4.97954,-7.80882 -3.093405,-1.88622 -6.714763,-3.54601 -10.864453,-4.97954 -3.772448,-1.32036 -7.22431,-2.84838 -10.35544,-4.5837 -3.093405,-1.73533 -5.130419,-4.03641 -6.111256,-6.90346 -0.905388,-3.47065 -0.301826,-7.37518 1.810743,-11.7135 2.112571,-4.338304 5.149487,-8.506905 9.110554,-12.505687 3.961069,-3.998794 8.261431,-7.205197 12.901538,-9.61957 4.677833,-2.452084 9.110482,-3.489717 13.297897,-3.112471 4.225134,0.339521 7.639284,2.678837 10.242274,7.017144 0.79221,-1.508974 1.73527,-3.207009 2.82928,-5.093229 1.13173,-1.92395 2.22568,-3.659182 3.28197,-5.205886 1.09401,-1.584426 1.98075,-2.602934 2.65979,-3.055625 0.3961,-0.212202 0.85826,-0.318329 1.38699,-0.318329 z m 50.96278,16.278593 c -8.66826,5.856933 -17.61796,15.29855 -26.84849,28.32437 2.99875,-0.74969 5.69308,-1.10106 8.08271,-1.0542 2.38963,0 4.77945,0.16397 7.16907,0.49196 0.28114,0.0469 0.58566,0.0703 0.91364,0.0703 0.23428,-0.51542 0.46852,-1.03076 0.7028,-1.54616 1.82736,-4.12329 3.60762,-8.19966 5.34128,-12.229226 1.78051,-4.029575 3.13964,-7.356364 4.07675,-9.980271 0.93711,-2.67076 1.12451,-4.029898 0.56224,-4.076753 z"
       inkscape:transform-center-x="-0.37108019"
       inkscape:transform-center-y="-75.560977" />
  </g>
</svg>
