<?xml version="1.0" encoding="UTF-8" standalone="no"?>
<!-- Created with Inkscape (http://www.inkscape.org/) -->

<svg
   width="210mm"
   height="297mm"
   viewBox="0 0 210 297"
   version="1.1"
   id="svg5"
   inkscape:version="1.1 (ce6663b3b7, 2021-05-25)"
   sodipodi:docname="logo-center.svg"
   inkscape:export-filename="/home/sachchidanand/Documents/web-design/wedding-website/img/logo-center.png"
   inkscape:export-xdpi="96"
   inkscape:export-ydpi="96"
   xmlns:inkscape="http://www.inkscape.org/namespaces/inkscape"
   xmlns:sodipodi="http://sodipodi.sourceforge.net/DTD/sodipodi-0.dtd"
   xmlns="http://www.w3.org/2000/svg"
   xmlns:svg="http://www.w3.org/2000/svg">
  <sodipodi:namedview
     id="namedview7"
     pagecolor="#ffffff"
     bordercolor="#666666"
     borderopacity="1.0"
     inkscape:pageshadow="2"
     inkscape:pageopacity="0.0"
     inkscape:pagecheckerboard="0"
     inkscape:document-units="mm"
     showgrid="false"
     inkscape:zoom="0.59152637"
     inkscape:cx="369.38336"
     inkscape:cy="535.05645"
     inkscape:window-width="1600"
     inkscape:window-height="836"
     inkscape:window-x="0"
     inkscape:window-y="27"
     inkscape:window-maximized="1"
     inkscape:current-layer="layer1" />
  <defs
     id="defs2" />
  <g
     inkscape:label="Layer 1"
     inkscape:groupmode="layer"
     id="layer1">
    <path
       id="path31023"
       style="font-size:58.8391px;line-height:1.25;font-family:'GERALDINE PERSONAL USE';-inkscape-font-specification:'GERALDINE PERSONAL USE, Normal';stroke-width:0.612907;fill:#f7f7f7;fill-opacity:1"
       d="m 36.311289,152.34932 c -1.93897,0.0273 -3.8591,0.41059 -5.695773,1.02009 -2.256369,0.74025 -4.374002,1.86547 -6.327934,3.20769 -3.635385,2.52421 -6.69799,5.93047 -8.604348,9.94064 -0.705106,1.45234 -1.234717,3.01506 -1.541131,4.58651 -0.395595,1.76138 -0.427768,3.60691 -0.04584,5.37373 0.514212,2.62091 1.636337,5.08704 3.026529,7.35449 0.793816,1.33697 1.659885,2.62852 2.495465,3.93924 0.556713,0.88614 1.09075,1.79262 1.605524,2.70879 0.685183,1.24895 1.223766,2.58743 1.526759,3.98124 0.209217,1.09632 -0.06642,2.22115 -0.534839,3.21462 -0.932275,2.01382 -2.571898,3.61008 -4.382553,4.8495 -1.977901,1.35437 -4.229936,2.3648 -6.614724,2.70576 -0.655248,0.0772 -1.3253371,0.13588 -1.9810748,0.0414 -1.8146107,-0.3264 -3.5616197,-1.22068 -4.7675057,-2.63288 -0.769133,-0.86864 -1.184214,-2.05083 -1.07606,-3.21056 0.06379,-1.15848 0.526123,-2.26176 1.192294,-3.20101 1.298596,-1.9121 3.236576,-3.31172 5.3312824,-4.24079 1.3226841,-0.5878 2.7102931,-1.05113 4.1492961,-1.24288 0.224123,-0.52364 0.396335,-1.11827 0.203988,-1.67977 -0.240963,-0.80252 -1.071506,-1.27448 -1.866667,-1.35546 -0.781748,-0.10605 -1.559792,0.0831 -2.309892,0.28362 -1.6380715,0.39229 -3.1156235,1.26708 -4.4616545,2.25605 -1.607965,1.21263 -3.064026,2.67014 -4.096274,4.41005 -0.77529798,1.34362 -1.38682402,2.83042 -1.45113598,4.39819 -0.07923,1.64581 0.38606096,3.33077 1.39503698,4.64487 0.959482,1.32215 2.286375,2.34587 3.751341,3.05281 1.66373,0.80708 3.513352,1.24501 5.3639375,1.23857 4.393036,-0.0226 8.7557,-1.64642 12.102642,-4.49076 1.965979,-1.64185 3.569155,-3.77082 4.380066,-6.21643 0.467733,-1.41845 0.652955,-2.9426 0.466572,-4.42785 -0.230069,-1.71424 -0.978811,-3.30472 -1.806938,-4.80432 -0.627287,-1.11624 -1.352793,-2.17327 -2.051576,-3.24512 -0.843516,-1.26082 -1.70815,-2.49454 -2.49545,-3.78695 -0.219554,-0.36677 -0.408286,-0.7038 -0.613526,-1.08711 -0.812184,-1.49294 -1.419384,-3.10318 -1.747639,-4.77215 -0.167235,-0.96434 -0.216123,-1.95775 -0.08591,-2.92901 0.432564,-2.39109 1.437201,-4.645 2.687277,-6.7156 1.23103,-2.02123 2.792757,-3.83337 4.549159,-5.41544 2.036842,-1.83316 4.411538,-3.32565 7.030146,-4.16639 0.33952,-0.11344 0.63274,-0.1974 0.9828,-0.28737 0.8257,-0.20685 1.6717,-0.33498 2.52245,-0.36997 0.15123,-0.006 0.38901,-0.0141 0.57493,-0.009 0.78522,-0.004 1.61159,0.2051 2.1784,0.77856 0.62712,0.62212 0.89897,1.52452 0.89448,2.39315 0.0181,1.00508 -0.2725,1.97963 -0.53172,2.94061 -0.20157,0.6899 -0.44446,1.37661 -0.7153,2.02019 -0.9699,2.25114 -2.26609,4.36382 -3.85761,6.22954 -1.69224,2.02468 -3.711355,3.74813 -5.810945,5.33497 -0.839595,0.62092 -1.70814,1.20204 -2.584855,1.76888 0,-0.20257 0,-0.40514 0,-0.60772 -0.344956,0.4247 -0.713843,0.83314 -1.044379,1.26763 -0.270106,0.43009 -0.04867,0.9883 0.308657,1.29445 0.67977,0.64834 1.54776,1.10562 2.468949,1.29092 0.387244,0.0587 0.81389,0.0564 1.145151,-0.17932 1.787443,-1.01744 3.408852,-2.30411 4.923722,-3.68918 2.07745,-1.94616 4.00191,-4.06975 5.60068,-6.43007 1.49293,-2.20948 2.73891,-4.61298 3.44982,-7.19214 0.39847,-1.43398 0.73161,-2.92882 0.54192,-4.4244 -0.15217,-1.32195 -0.70151,-2.6064 -1.62458,-3.57401 -1.17781,-1.26027 -2.88391,-1.90038 -4.57114,-2.08105 -0.51457,-0.0567 -1.03288,-0.0716 -1.5503,-0.0622 z m 28.17451,28.46958 c -1.24812,0.0215 -2.42738,0.5951 -3.35318,1.40813 -1.51104,1.25477 -2.70504,2.83873 -3.79797,4.4578 -0.38412,0.56286 -0.71593,1.16635 -1.10148,1.72382 -0.23298,0.10889 -0.25916,0.39793 -0.39097,0.59658 -0.21399,0.45086 -0.56433,0.82793 -0.76048,1.28596 -0.20481,0.22299 -0.39147,0.45738 -0.54512,0.71958 -1.13337,1.7084 -2.34527,3.37083 -3.70444,4.90751 -1.10237,1.22037 -2.31187,2.35814 -3.67575,3.28269 -1.16431,0.76014 -2.44188,1.40611 -3.82443,1.63943 -0.21678,0.0374 -0.43551,0.0615 -0.65467,0.0796 1.17083,-0.96788 2.18937,-2.10112 3.14826,-3.27503 1.05819,-1.28169 2.05936,-2.62202 2.82675,-4.10143 1.11824,-2.03732 1.93389,-4.28118 2.10753,-6.61156 0.0692,-1.17102 -0.0509,-2.42033 -0.70108,-3.42849 -0.57676,-0.88141 -1.49345,-1.53654 -2.52339,-1.77058 -1.16738,-0.28207 -2.39818,-0.21149 -3.56384,0.0431 -1.60247,0.36923 -3.06374,1.1953 -4.37104,2.17344 -1.91861,1.46584 -3.46974,3.36178 -4.7291,5.41081 -1.42384,2.29519 -2.48841,4.83439 -2.971072,7.49827 -0.201065,1.26011 -0.237773,2.58132 0.141973,3.81238 0.349379,1.07236 1.053499,2.0859 2.096809,2.57519 0.94795,0.45929 2.02366,0.59234 3.06685,0.5669 1.11054,-0.0481 2.13076,-0.56625 3.05496,-1.14532 1.55613,0.46077 3.2543,0.46777 4.79362,-0.0653 1.86472,-0.60037 3.5283,-1.70262 4.97127,-3.01101 1.52482,-1.35288 2.84014,-2.92091 4.05415,-4.5534 0.85402,-1.1409 1.69,-2.29762 2.46016,-3.49693 0.27907,-0.44061 0.46215,-0.93432 0.77519,-1.35409 1.06207,-1.61035 2.22059,-3.1572 3.44944,-4.64369 0.11226,-0.13019 0.19899,-0.2357 0.2977,-0.34177 0.68756,-0.75009 1.37811,-1.5574 2.31799,-1.99567 0.16702,-0.0928 0.2809,-0.0556 0.15166,0.12966 -0.24965,0.53434 -0.58641,1.02435 -0.86786,1.54276 -0.76784,1.34579 -1.57128,2.67077 -2.356,4.00672 -0.90633,1.50521 -1.79664,3.02023 -2.69489,4.53033 -1.77734,3.02728 -3.58216,6.03912 -5.35718,9.0672 -0.18679,0.37352 0.0815,0.81504 0.45453,0.93609 0.66354,0.2554 1.39189,0.21168 2.09042,0.23716 0.56055,-0.008 1.12676,-0.0549 1.6707,-0.19379 0.29735,-0.0739 0.51573,-0.30377 0.63848,-0.57662 1.17025,-2.02055 2.37719,-4.01993 3.53261,-6.04897 0.20799,-0.35683 0.39553,-0.72637 0.56108,-1.1031 1.26642,-2.06047 2.50785,-4.13984 3.92148,-6.10456 0.97711,-1.3865 2.00144,-2.74687 3.17353,-3.976 0.0756,-0.0734 0.21772,-0.22331 0.322,-0.32355 0.7831,-0.7558 1.65149,-1.48172 2.69628,-1.83625 0.38736,-0.12282 0.82482,-0.18101 1.21454,-0.052 0.10886,0.34863 -0.003,0.72485 -0.0756,1.072 -0.44661,1.63638 -1.26451,3.1484 -2.06835,4.63762 -0.88808,1.61918 -1.82288,3.21214 -2.72857,4.82127 -0.68334,1.27829 -1.28233,2.60783 -1.71827,3.99136 -0.29901,1.06594 -0.57567,2.19676 -0.31971,3.30144 0.18089,0.95638 0.90119,1.75879 1.80232,2.10449 0.8205,0.30905 1.71741,0.43702 2.59084,0.34586 1.10764,-0.11233 2.10892,-0.65979 3.00312,-1.29247 1.02878,-0.72608 1.93596,-1.61012 2.775,-2.54536 -0.11198,0.97244 0.0589,2.04185 0.74311,2.78381 0.61329,0.72952 1.58717,0.99106 2.49855,1.08447 1.08455,0.11891 2.18267,-0.15372 3.13618,-0.66882 1.57947,-0.78798 2.87423,-2.03967 3.99931,-3.37413 -0.11252,0.92515 -0.0504,1.94706 0.53403,2.7153 0.42741,0.604 1.10184,0.98421 1.81247,1.15229 1.07299,0.28412 2.23442,0.27134 3.2775,-0.12676 1.08103,-0.41401 2.04594,-1.08659 2.92184,-1.83452 1.43708,-1.24764 2.61665,-2.75409 3.71651,-4.29838 1.31841,-1.82119 2.511121,-3.72914 3.650811,-5.66599 0.4071,-0.69422 0.83755,-1.36833 1.24134,-2.07052 0.19302,-0.3661 0.11608,-0.84247 -0.19533,-1.11931 -0.30501,-0.34053 -0.84996,-0.30241 -1.18753,-0.031 -0.20494,0.12862 -0.26653,0.39378 -0.40763,0.58314 -1.722931,2.90125 -3.515091,5.77509 -5.621311,8.41705 -0.98077,1.20389 -2.02251,2.38624 -3.28987,3.29725 -0.64759,0.44083 -1.41074,0.8556 -2.22069,0.75196 -0.10276,-0.0418 -0.30191,7.1e-4 -0.30577,-0.1613 -0.055,-0.50129 0.0955,-1.00104 0.22671,-1.48076 0.44008,-1.31032 1.10371,-2.53033 1.74061,-3.75251 0.14731,-0.27014 0.3302,-0.5988 0.48731,-0.89348 1.10191,-1.95781 2.2528,-3.88773 3.38035,-5.83089 1.32186,-2.27 2.66575,-4.52767 3.93533,-6.82745 0.205831,-0.31857 0.0727,-0.77255 -0.265981,-0.9367 -0.45733,-0.22446 -0.983659,-0.23515 -1.481559,-0.29197 -0.77606,-0.062 -1.5672,-0.0299 -2.32441,0.15813 -0.29196,0.0763 -0.51938,0.29513 -0.63303,0.57154 -1.22118,2.17479 -2.50281,4.31503 -3.78865,6.45202 -1.10534,1.82674 -2.21876,3.64863 -3.36553,5.44973 -0.42363,0.70455 -0.88488,1.38479 -1.38726,2.03563 -1.16328,1.53169 -2.38255,3.04448 -3.85695,4.29058 -0.6683,0.53845 -1.40874,1.06958 -2.27772,1.19928 -0.24385,0.0256 -0.51298,0.0371 -0.74052,-0.0439 -0.0836,-0.46234 0.0503,-0.93478 0.15931,-1.38327 0.38697,-1.39135 1.0549,-2.68082 1.73153,-3.94922 0.1424,-0.26069 0.31654,-0.58204 0.48237,-0.85967 1.1058,-1.90229 2.21042,-3.80528 3.3334,-5.69741 1.10961,-1.92817 2.23071,-3.84941 3.35772,-5.76743 0.2585,-0.45441 0.54631,-0.89729 0.75755,-1.37537 0.12969,-0.38548 -0.17381,-0.77586 -0.54262,-0.87142 -0.67537,-0.19331 -1.38734,-0.22453 -2.08652,-0.23885 -0.56366,0.0131 -1.13739,0.0464 -1.68099,0.20409 -0.29039,0.0805 -0.49237,0.31916 -0.60212,0.59026 -1.80899,3.23207 -3.68372,6.42695 -5.47708,9.66774 -0.33164,0.606 -0.65638,1.2163 -1.05668,1.78086 -1.29795,1.94921 -2.67946,3.85587 -4.29426,5.55722 -0.843,0.85272 -1.73271,1.71482 -2.84353,2.20663 -0.43494,0.18198 -0.94269,0.29684 -1.3987,0.14204 -0.11023,-0.36305 0.0354,-0.74479 0.10465,-1.10406 0.32651,-1.29208 0.92045,-2.49489 1.50385,-3.68627 0.7584,-1.44729 1.52228,-2.89207 2.3507,-4.30088 0.54003,-0.93701 1.09773,-1.86673 1.53125,-2.85964 0.58665,-1.21028 1.07198,-2.47901 1.33674,-3.8005 0.15859,-0.82225 0.24417,-1.70275 -0.0837,-2.49698 -0.35836,-0.99948 -1.32219,-1.68947 -2.34659,-1.87708 -0.89947,-0.18534 -1.84826,-0.21804 -2.73398,0.0563 -1.18204,0.36897 -2.25578,1.03215 -3.206,1.81747 -0.19602,-0.81102 -0.82349,-1.4488 -1.54703,-1.82742 -0.61699,-0.31683 -1.31144,-0.51882 -2.00831,-0.51921 z m -17.9219,3.87108 c 0.5685,0.01 1.21869,0.15748 1.53018,0.68368 0.34343,0.52391 0.35401,1.15851 0.34538,1.75828 -0.0555,1.01001 -0.32311,1.99746 -0.64887,2.95086 -0.31394,0.86415 -0.68184,1.70845 -1.08768,2.53331 -0.18527,0.37636 -0.41228,0.79587 -0.6373,1.1759 -0.64455,1.14052 -1.49928,2.14191 -2.3496,3.13177 -0.99624,1.1365 -2.07453,2.20247 -3.24754,3.15637 -0.11092,0.0879 -0.22007,0.2083 -0.33571,0.27141 -0.58441,-0.52138 -0.77927,-1.32006 -0.96046,-2.05109 -0.23114,-1.03178 -0.23445,-2.10086 -0.17664,-3.15179 0.11718,-1.43813 0.36853,-2.87603 0.89871,-4.2235 0.3547,-0.90352 0.76517,-1.80701 1.39058,-2.55755 0.94143,-1.05671 1.92398,-2.09926 3.08797,-2.91429 0.6469,-0.4308 1.39379,-0.79872 2.19098,-0.76336 z m -9.88519,13.3351 c 0.22305,1.20519 0.62939,2.42847 1.46245,3.35484 0.18581,0.11818 -0.10231,0.14299 -0.19962,0.17448 -0.44149,0.0781 -0.9871,-0.0738 -1.17239,-0.52123 -0.43376,-0.89634 -0.30837,-1.92871 -0.15773,-2.87798 0.0204,-0.0975 0.0466,-0.37607 0.0673,-0.13011 z" />
    <path
       d="m 113.56259,150.13334 c -0.94876,-0.43871 -1.82843,-0.76225 -2.54841,-1.01973 -7.99078,-2.85784 -16.175848,2.94596 -18.830498,8.72149 -2.654322,5.7756 -4.202432,14.51554 4.220556,27.53105 8.423182,13.01551 6.614382,15.58185 5.548072,20.26445 2.85902,-3.8586 3.62872,-6.90288 18.99077,-8.98709 15.36205,-2.08447 20.98666,-8.9511 23.64066,-14.72684 2.65426,-5.77566 1.72782,-15.76698 -5.64502,-19.96942 -3.03696,-1.73114 -9.29325,-5.09675 -16.7005,-0.45893 -1.01907,-6.75111 -5.28778,-9.7878 -8.67636,-11.35456 z"
       color="#000000"
       color-rendering="auto"
       image-rendering="auto"
       solid-color="#000000"
       style="isolation:auto;mix-blend-mode:normal;fill:#ff0033;fill-opacity:1;stroke-width:0.0654177"
       id="path4" />
    <path
       id="path30988"
       style="font-size:56.4836px;line-height:1.25;font-family:'GERALDINE PERSONAL USE';-inkscape-font-specification:'GERALDINE PERSONAL USE, Normal';stroke-width:0.570698;fill:#f7f7f7;fill-opacity:1"
       d="m 186.18502,155.55608 c -1.82338,0.34337 -3.61853,0.91144 -5.31904,1.65639 -6.23407,5.37713 -12.10081,11.18031 -18.23258,16.68107 -2.34173,2.16403 -4.71543,4.29226 -7.1135,6.39362 -4.7693,-1.33868 -9.86092,-0.81361 -14.61187,0.33696 -7.47655,1.89059 -14.59391,6.29554 -18.58345,13.03318 -1.40815,2.38576 -2.46387,5.52115 -0.97392,8.12195 1.3946,2.51349 4.79285,3.10718 7.28696,2.00707 4.84953,-1.94314 9.03619,-5.18309 13.16114,-8.32349 4.92705,-3.87138 9.64657,-7.99794 14.30333,-12.18815 2.62105,1.07149 4.45641,3.9289 3.91958,6.77864 -0.57171,2.17676 -1.56195,4.23672 -2.10634,6.43168 -0.82624,2.93632 -1.51077,6.07644 -0.91123,9.11818 0.41334,1.63073 1.74482,3.50037 3.65444,3.12691 0.90875,-0.33849 1.86381,0.15116 2.82735,0.0246 1.06653,-0.0589 2.62249,0.10818 3.02743,-1.16986 2.46412,-4.28886 4.54409,-8.83156 7.66937,-12.70328 2.3489,-2.96657 4.85862,-5.8496 7.80395,-8.24216 -2.12059,3.22221 -4.16998,6.78528 -4.34871,10.73102 -0.18447,2.48842 2.24684,4.37405 4.58143,4.40733 1.09503,0.0782 2.22304,-0.10706 3.2058,-0.60528 -0.80336,1.88597 -1.72842,4.25129 -0.54393,6.17457 1.37454,1.84792 4.22445,1.72653 6.0205,0.58122 0.88964,-0.51826 1.71199,-1.15297 2.44185,-1.87955 0.20152,1.98164 2.37858,2.88957 4.152,2.69741 2.79011,-0.33009 4.89949,-2.53267 6.58281,-4.60626 2.20432,-2.78801 4.05364,-5.83798 5.85372,-8.89324 0.4249,-1.13734 -1.33625,-2.06458 -1.97619,-0.98671 -2.28799,3.75339 -4.54679,7.64539 -7.79441,10.66257 -0.74613,0.61213 -1.64648,1.31546 -2.66601,1.2055 0.43498,-2.73907 2.19382,-5.01833 3.41836,-7.4469 1.90444,-3.33623 3.79699,-6.67875 5.75192,-9.98622 0.31375,-1.0941 -1.07562,-1.34097 -1.87537,-1.34101 -1.14003,-0.0189 -2.80785,-0.24356 -3.2661,1.11758 -2.34386,4.30691 -4.99279,8.45494 -7.19757,12.82955 -1.45065,1.83552 -2.90574,3.95814 -5.18974,4.79146 -0.90795,0.40212 -0.68286,-0.48599 -0.46904,-1.03387 1.26109,-3.43585 3.39167,-6.46184 5.08713,-9.68994 2.42874,-4.16947 4.75079,-8.3983 7.14339,-12.58868 1.16725,0.0169 2.41826,-0.0334 3.53419,0.0246 -0.44848,1.63427 0.79455,3.70036 2.62677,3.46237 2.77252,-0.0782 4.64774,-4.09001 2.52511,-6.0758 -1.16703,-0.9719 -2.99555,-0.61578 -4.01482,0.40765 -1.12432,0 -2.24861,0 -3.37293,0 0.86262,-1.6173 1.94369,-3.16466 2.63494,-4.84618 0.11489,-1.03822 -1.38768,-1.01557 -2.01219,-1.15122 -1.1289,0.0519 -2.69528,-0.11154 -3.14287,1.23595 -0.91908,1.59002 -1.83859,3.17976 -2.75791,4.76965 -1.38272,0.11294 -2.8254,-0.10174 -4.17105,0.22139 -1.13281,0.43081 -0.67209,2.22447 0.51387,2.132 0.61442,0.13672 2.26153,-0.33946 2.18791,0.20516 -2.08987,3.60156 -4.07201,7.27314 -6.21511,10.83805 -1.48568,1.91678 -3.00381,4.03306 -5.25243,5.09431 -0.75379,0.23298 -2.28648,0.0775 -2.03632,-1.04139 0.79598,-3.15989 3.1637,-5.56497 4.88171,-8.24098 0.91387,-1.49428 2.39768,-3.07495 2.04452,-4.96097 -0.70608,-1.94806 -3.07287,-2.2819 -4.86145,-2.52527 -2.35307,0.87214 -4.22794,2.73558 -5.99952,4.47332 -0.21409,0.0943 0.73149,-1.36303 0.96723,-1.87074 0.30329,-0.72666 1.41032,-1.63544 0.51572,-2.35689 -1.25234,-0.64433 -2.80202,-0.53073 -4.17924,-0.41547 -1.0097,-0.0444 -1.59385,0.78155 -1.93558,1.62492 -3.76038,6.80221 -7.4073,13.66721 -11.26889,20.41345 -0.35853,0.61476 -0.95986,2.03489 -0.79146,0.55972 0.32613,-4.2801 2.0502,-8.30033 3.66725,-12.22737 4.42123,-10.07552 10.26367,-19.60456 16.64448,-28.6777 1.90622,-2.69261 3.90424,-5.31796 5.91854,-7.93015 -0.8172,-0.14605 -0.33671,-0.6929 -1.36393,-0.36627 z m -13.38508,12.60607 c -3.93524,5.94445 -7.70341,12.01502 -10.95514,18.36519 -0.59815,-2.07165 -1.97455,-3.91284 -3.79931,-5.06212 5.31244,-4.82862 10.53701,-9.75369 15.71385,-14.72713 -0.31979,0.47468 -0.63959,0.94938 -0.9594,1.42406 z m -23.12935,13.96727 c 1.15204,0.01 2.30263,0.10398 3.43852,0.29793 -6.42334,5.54121 -12.88971,11.0765 -19.94504,15.75486 -2.22637,1.31882 -4.53142,3.07544 -7.24604,2.96292 -1.39719,0.0126 -1.44705,-1.66737 -1.38851,-2.68959 0.66786,-3.98134 3.36308,-7.28482 6.23743,-9.96569 5.18092,-4.45891 12.16979,-6.34056 18.90364,-6.36043 z" />
  </g>
</svg>
