<?xml version="1.0" encoding="UTF-8" standalone="no"?>
<!-- Created with Inkscape (http://www.inkscape.org/) -->

<svg
   width="210mm"
   height="297mm"
   viewBox="0 0 210 297"
   version="1.1"
   id="svg5"
   inkscape:version="1.1 (ce6663b3b7, 2021-05-25)"
   sodipodi:docname="logo.svg"
   xmlns:inkscape="http://www.inkscape.org/namespaces/inkscape"
   xmlns:sodipodi="http://sodipodi.sourceforge.net/DTD/sodipodi-0.dtd"
   xmlns="http://www.w3.org/2000/svg"
   xmlns:svg="http://www.w3.org/2000/svg">
  <sodipodi:namedview
     id="namedview7"
     pagecolor="#ffffff"
     bordercolor="#666666"
     borderopacity="1.0"
     inkscape:pageshadow="2"
     inkscape:pageopacity="0.0"
     inkscape:pagecheckerboard="0"
     inkscape:document-units="mm"
     showgrid="false"
     inkscape:zoom="0.83654462"
     inkscape:cx="323.35394"
     inkscape:cy="662.84569"
     inkscape:window-width="1600"
     inkscape:window-height="836"
     inkscape:window-x="0"
     inkscape:window-y="27"
     inkscape:window-maximized="1"
     inkscape:current-layer="layer1" />
  <defs
     id="defs2" />
  <g
     inkscape:label="Layer 1"
     inkscape:groupmode="layer"
     id="layer1">
    <g
       clip-rule="evenodd"
       fill-rule="evenodd"
       id="g1020"
       transform="matrix(0.1179131,0,0,0.1179131,11.02338,112.60966)"
       style="fill:#f809ad;fill-opacity:0.499486;stroke:#f5962c;stroke-opacity:0.407843">
	
	
</g>
    <g
       clip-rule="evenodd"
       fill-rule="evenodd"
       id="g3484"
       transform="matrix(0.11648646,0,0,0.11648646,86.688529,112.79448)"
       style="fill:#cce9ea;fill-opacity:1;stroke:none;stroke-opacity:1"
       inkscape:export-filename="/home/sachchidanand/Documents/web-design/wedding-website/img/logo.png"
       inkscape:export-xdpi="96"
       inkscape:export-ydpi="96">
	
	
	
	<path
   id="path3482"
   style="fill:#cce9ea;fill-opacity:1;stroke:none;stroke-opacity:1"
   d="m 267.08,98.285 c -12.211,1.509 -24.799,1.633 -36.567,4.8 -28.31,7.635 -48.085,22.656 -45.329,56.38 1.492,18.221 0.509,36.633 0.754,54.962 0.85,63.178 -62.95,77.345 -107,60.922 -9.724,-3.622 -21.79,-23.916 -19.386,-32.977 8.708,-32.861 14.611,-73.755 37.305,-93.941 36.72,-32.671 85.087,-53.014 130.37,-74.759 10.859,-5.214 28.915,4.56 43.658,7.444 -1.26,5.731 -2.53,11.459 -3.8,17.18 z m 97.51,479.585 c -39.224,50.237 -93.025,74.435 -154.06,84.01 -24.538,3.847 -51.857,10.146 -74.236,3.307 -44.688,-13.66 -65.189,-51.53 -69.45,-96.76 -6.694,-71.094 19.871,-127.95 81.738,-163.75 52.214,-30.217 107.23,-55.634 161.4,-82.394 9.251,-4.568 20.438,-5.215 35.97,0.978 -7.059,6.309 -13.09,15.096 -21.342,18.52 -54.763,22.698 -81.312,71.857 -111.94,117.23 -3.88,5.745 36.695,117.96 43.841,125.52 29.521,31.228 57.947,17.798 86.837,-1.136 5.679,-3.722 13.082,-4.808 19.676,-7.129 -0.03,-0.01 1.56,1.6 1.56,1.6 z M 363,576.26 c 3.271,-47.037 8.045,-94.024 9.492,-141.12 2.839,-92.283 3.063,-184.65 5.948,-276.93 1.157,-36.965 -30.188,-41.209 -51.348,-52.201 -23.788,-12.344 -33.852,-25.6 -24.638,-54.946 79.849,-0.083 162.33,-10.602 220.68,67.746 -12.559,8.539 -21.256,14.458 -35.398,24.074 42.838,14.508 51.576,44.069 46.033,80.147 -4.874,31.717 -10.357,63.343 -16.422,100.17 33.836,25.574 26.396,122.11 -22.644,147.84 35.112,-12.617 42.85,8.547 46.187,33.143 1.887,13.894 0.634,28.194 1.248,42.287 1.841,42.17 33.023,59.256 69.557,37.81 10.392,-6.093 19.768,-13.935 32.148,-22.797 2.835,8.622 7.249,14.872 5.637,18.197 -26.221,53.917 -71.567,82.732 -129.31,89.481 -47.397,5.545 -82.866,-19.391 -112.91,-54.407 -12.103,-14.109 -28.318,-24.687 -42.664,-36.874 l -1.61,-1.62 z m 204.91,-0.11 c 19.096,-10.387 30.88,-19.771 44.21,-23.261 15.063,-3.945 36.716,-9.085 45.909,-1.716 9.269,7.42 13.936,32.986 8.315,44.691 -53.715,111.86 -200.94,127.22 -280.46,30.79 -3.507,-4.254 -7.494,-8.109 -11.552,-12.46 -31.241,17.5 -59.936,39.767 -92.433,50.261 -42.341,13.679 -87.458,22.988 -131.81,25.061 -49.644,2.321 -79.84,-30.896 -96.15,-75.787 -36.471,-100.36 9.323,-199.21 115.76,-250.76 47.046,-22.789 93.979,-45.827 141.42,-67.779 27.029,-12.501 43.716,-29.413 38.125,-61.958 -2.122,-12.369 -0.066,-25.4 -0.448,-38.117 -2.064,-69.262 -58.556,-99.645 -120.45,-66.153 -28.974,15.676 -20.207,39.651 -18.495,63.053 5.542,75.612 -37.42,119.68 -110.74,113.9 -44.09,-3.482 -71.596,-28.841 -63.385,-72.023 6.723,-35.373 20.696,-76.798 45.827,-99.91 94.438,-86.851 209.96,-119.12 337.22,-105.27 86.252,9.384 136.32,65.25 138.25,153.75 2.188,100.39 1.348,200.84 2.906,301.25 0.43,27.9 4.69,55.73 7.99,92.45 z m -203.32,1.72 c 14.345,12.187 30.561,22.765 42.664,36.874 30.047,35.017 65.515,59.952 112.91,54.407 57.747,-6.749 103.09,-35.564 129.31,-89.481 1.612,-3.325 -2.802,-9.575 -5.637,-18.197 -12.381,8.862 -21.757,16.704 -32.148,22.797 -36.533,21.446 -67.716,4.36 -69.557,-37.81 -0.614,-14.093 0.639,-28.394 -1.248,-42.287 -3.336,-24.596 -11.075,-45.76 -46.187,-33.143 49.039,-25.732 56.479,-122.27 22.644,-147.84 6.064,-36.824 11.548,-68.45 16.422,-100.17 5.542,-36.078 -3.195,-65.639 -46.033,-80.147 14.142,-9.616 22.839,-15.535 35.398,-24.074 -58.349,-78.348 -140.83,-67.828 -220.68,-67.746 -9.214,29.347 0.85,42.602 24.638,54.946 21.16,10.992 52.504,15.236 51.348,52.201 -2.885,92.284 -3.109,184.65 -5.948,276.93 -1.447,47.095 -6.222,94.083 -9.467,141.14 -6.607,2.305 -14.01,3.391 -19.688,7.113 -28.89,18.934 -57.316,32.364 -86.837,1.136 -7.146,-7.561 -47.721,-119.77 -43.841,-125.52 30.627,-45.371 57.175,-94.53 111.94,-117.23 8.252,-3.424 14.283,-12.211 21.342,-18.52 -15.531,-6.193 -26.718,-5.546 -35.97,-0.978 -54.162,26.759 -109.18,52.176 -161.4,82.394 -61.83,35.82 -88.394,92.68 -81.7,163.77 4.261,45.23 24.762,83.098 69.457,96.759 22.379,6.84 49.698,0.54 74.236,-3.307 61.03,-9.57 114.83,-33.77 154.05,-84.01 z M 267.08,98.29 c 1.269,-5.72 2.537,-11.448 3.801,-17.168 -14.743,-2.885 -32.799,-12.658 -43.658,-7.444 -45.28,21.745 -93.647,42.088 -130.37,74.759 -22.694,20.186 -28.596,61.08 -37.305,93.941 -2.404,9.061 9.662,29.355 19.386,32.977 44.052,16.423 107.85,2.255 107,-60.922 -0.245,-18.329 0.738,-36.741 -0.754,-54.962 -2.757,-33.724 17.019,-48.745 45.329,-56.38 11.77,-3.172 24.36,-3.297 36.57,-4.805 z m 85,261.18 c -90.518,35.746 -123.49,93.684 -102.6,172.3 7.104,26.735 19.228,49.549 51.016,44.757 30.465,-4.584 51.484,-22.3 51.555,-56.628 0.1,-52.06 0.02,-104.1 0.02,-160.43 z M 27.138274,463.53948 c -5.638217,90.38761 -21.8412588,158.63939 -92.599367,191.21351 -59.394617,27.3408 -123.099387,47.99773 -191.274247,25.77485 -23.63293,-7.7032 -49.02617,-10.05667 -72.70567,-17.65865 -10.21155,-3.27968 -26.98246,-17.30842 -25.75157,-20.31479 16.19495,-39.62543 -19.6295,-70.6579 -15.88216,-107.34882 0.84928,-8.35104 4.38607,-16.43586 6.69096,-24.6381 8.69318,4.09656 20.32997,5.92772 25.55722,12.70471 20.21356,26.17166 37.38937,54.6816 57.54018,80.90083 28.22854,36.74255 65.3689,56.4338 113.0579,53.70781 44.20483,-2.52454 74.863779,-26.45305 86.602811,-68.81155 10.468661,-37.73152 -4.689742,-76.71822 -44.329341,-97.00163 -33.1592,-16.97337 -69.25492,-28.6962 -104.8587,-40.26315 -55.71712,-18.09493 -112.98704,-40.78547 -129.65875,-99.94525 -12.96992,-46.01979 -18.32066,-99.6112 9.51108,-146.21911 27.67585,-46.36194 68.39046,-77.30229 120.84207,-90.32586 63.25736,-15.711092 125.60977,-5.47626 186.385092,13.52261 29.84105,9.32381 64.099546,89.4614 50.7247229,117.96729 -10.3674365,22.09939 -24.4194529,12.10446 -36.6646079,-1.21469 -23.267516,-25.31529 -46.082557,-51.13772 -70.696357,-75.11381 -33.49425,-32.63789 -73.71084,-39.26608 -117.68387,-25.07438 -45.71612,14.7616 -46.12102,59.85317 -62.26839,94.27464 -1.26227,2.69561 0.61545,9.5961 2.99929,10.86647 35.00553,18.68609 53.11565,57.1201 103.07714,62.12061 55.55415,5.56229 113.806956,22.97902 158.032039,67.37112 29.284313,29.40579 46.269822,60.70447 43.35455,83.5104 z M -146.09772,81.217741 c 33.40112,8.147578 78.361095,15.002517 119.688114,31.118509 17.9076666,6.97944 32.4809904,31.26629 41.097239,50.95855 9.322797,21.29667 12.789744,46.34675 13.257402,69.86328 0.265209,13.77972 -6.979444,35.48838 -16.848855,39.77322 -13.1167002,5.6868 -36.820494,3.59044 -47.616111,-5.30418 -26.375115,-21.74104 -47.42176,-49.84406 -71.608399,-74.40422 -24.60672,-24.98834 -55.85783,-42.41316 -89.43002,-29.20941 -20.11234,7.90667 -39.83496,29.70845 -48.65164,50.06272 -10.5628,24.39617 5.48335,47.52298 30.37855,56.99458 37.01485,14.08339 75.08952,25.51065 113.10851,36.73546 99.0737039,29.26508 151.118397,90.10823 152.100277,179.12728 1.098288,100.0161 -53.513464,176.32335 -148.516918,206.78187 -83.424359,26.74965 -165.583409,18.69519 -244.832249,-14.70593 -15.04908,-6.34072 -29.53737,-26.83467 -33.72807,-43.45679 -9.00496,-35.81533 -13.14808,-73.25127 -14.90939,-110.23372 -0.52941,-11.35742 11.00717,-30.30871 20.86039,-33.36165 12.61867,-3.90221 34.81827,-0.23383 42.87272,8.95029 22.58931,25.74449 39.18105,56.63625 59.74485,84.30502 24.13097,32.48099 55.55315,52.47692 98.03716,51.5416 32.88691,-0.72376 57.31446,-14.23118 66.10076,-46.47126 9.285347,-34.09451 1.46472,-63.80296 -33.8212,-79.69321 -21.72485,-9.79147 -44.16638,-18.04027 -66.52186,-26.37512 -21.1094,-7.87528 -43.09035,-13.66331 -63.70881,-22.6055 -97.29721,-42.21071 -130.96455,-98.32565 -120.70037,-199.08879 8.19414,-80.39369 76.00864,-152.73799 161.09915,-170.340973 23.2412,-4.815261 47.15048,-6.388293 82.54877,-10.968712 z M 27.138274,463.54353 c 2.91426,-22.80694 -14.0672,-54.10563 -43.355562,-83.5104 C -60.43731,335.64103 -118.6972,318.2243 -174.24933,312.662 c -49.96048,-5.0005 -68.0716,-43.4335 -103.07714,-62.1206 -2.38384,-1.26936 -4.26055,-8.17086 -2.99929,-10.86647 16.14737,-34.42147 16.55227,-79.51405 62.26839,-94.27464 43.97101,-14.19272 84.1876,-7.56351 117.68387,25.07438 24.613804,23.97609 47.428845,49.7975 70.69636,75.11381 12.245155,13.32016 26.2971717,23.31407 36.6646081,1.21469 C 20.362291,218.30234 -13.895193,138.1688 -43.737254,128.83588 -104.50954,109.83701 -166.86701,99.602176 -230.12234,115.31327 c -52.45364,13.02357 -93.16926,43.96392 -120.84208,90.32586 -27.83174,46.61196 -22.47999,100.20336 -9.51108,146.21911 16.66969,59.15978 73.93657,81.85032 129.65876,99.94525 35.60478,11.56695 71.70152,23.28978 104.85869,40.26314 39.640615,20.28342 54.799017,59.26911 44.329344,97.00164 -11.739031,42.35849 -42.397974,66.28701 -86.602814,68.81155 -47.68697,2.72598 -84.82632,-16.96526 -113.0579,-53.70781 -20.1508,-26.21923 -37.32661,-54.72816 -57.54018,-80.90083 -5.22623,-6.77699 -16.86404,-8.60714 -25.55722,-12.70471 -2.3059,8.20224 -5.84168,16.28705 -6.69095,24.63809 -3.74633,36.68789 32.0771,67.72036 15.88216,107.34883 -1.2309,3.00637 15.54002,17.0351 25.75157,20.31479 23.6795,7.60197 49.07273,9.95444 72.70567,17.65865 68.17283,22.22288 131.88569,1.56595 191.27424,-25.77485 70.7459615,-32.564 86.95204,-100.81983 92.590257,-191.20339 z" />

</g>
    <path
       class="st1"
       d="m 112.53295,129.7519 c -6.52302,-4.36807 -16.074568,-1.80548 -22.422844,5.70764 -5.649391,-7.92082 -14.90973,-11.29878 -21.72394,-7.51312 -7.571344,4.13513 -9.318577,15.43391 -3.902155,25.16018 5.358188,9.72626 25.68433,24.05358 25.68433,24.05358 0,0 17.880029,-12.75481 24.111839,-22.01513 6.11533,-9.2021 5.35819,-20.55912 -1.74723,-25.39315 z"
       id="path18"
       style="fill:#f90829;fill-opacity:0.59705836;stroke-width:0.582408"
       inkscape:export-filename="/home/sachchidanand/Documents/web-design/wedding-website/img/path18.png"
       inkscape:export-xdpi="96"
       inkscape:export-ydpi="96" />
  </g>
</svg>
